<svg xmlns="http://www.w3.org/2000/svg" viewBox="0 0 1024 1024">
    <!-- centered pie-style doughnut chart -->
    <g id="iris">
        <path d="M692.0,512.0 A180,180 0 0,1 543.2566719800475,689.2653955421974 L525.8918542133545,590.7846202409767 A80,80 0 0,0 592.0,512.0 Z" fill="rgb(130,159,102)"/>
        <path d="M543.2566719800475,689.2653955421974 A180,180 0 0,1 374.11200023858396,627.7017697435771 L450.71644455048175,563.4230087749231 A80,80 0 0,0 525.8918542133545,590.7846202409767 Z" fill="rgb(170,123,216)"/>
        <path d="M374.11200023858396,627.7017697435771 A180,180 0 0,1 334.73460445780256,480.7433280199525 L433.21537975902334,498.10814578664554 A80,80 0 0,0 450.71644455048175,563.4230087749231 Z" fill="rgb(130,100,159)"/>
        <path d="M334.73460445780256,480.7433280199525 A180,180 0 0,1 408.75624145681167,364.55263202798153 L466.1138850919163,446.46783645688066 A80,80 0 0,0 433.21537975902334,498.10814578664554 Z" fill="rgb(215,192,125)"/>
        <path d="M408.75624145681167,364.55263202798153 A180,180 0 0,1 527.6880336945784,332.6849543434858 L518.9724594198126,432.3044241526604 A80,80 0 0,0 466.1138850919163,446.46783645688066 Z" fill="rgb(158,143,101)"/>
        <path d="M527.6880336945784,332.6849543434858 A180,180 0 0,1 627.7017697435771,374.11200023858396 L563.4230087749231,450.71644455048175 A80,80 0 0,0 518.9724594198126,432.3044241526604 Z" fill="rgb(129,216,147)"/>
        <path d="M627.7017697435771,374.11200023858396 A180,180 0 0,1 681.1446717414635,450.43637420137964 L587.1754096628727,484.6383885339465 A80,80 0 0,0 563.4230087749231,450.71644455048175 Z" fill="rgb(124,146,216)"/>
        <path d="M681.1446717414635,450.43637420137964 A180,180 0 0,1 692.0,512.0 L592.0,512.0 A80,80 0 0,0 587.1754096628727,484.6383885339465 Z" fill="rgb(217,125,193)"/>
    </g>
</svg>
