<svg width="800" height="600" xmlns="http://www.w3.org/2000/svg">

 <g>
  <title>Layer 1</title>
  <g transform="rotate(-90 399 300)">
   <!-- centered pie-style doughnut chart -->
   <g id="svg_1">
    <path fill="rgb(130,159,102)" d="m579.00073,299.99814a180,180 0 0 1 -148.74338,177.26538l-17.36478,-98.48077a80,80 0 0 0 66.10815,-78.78461l100,0z"/>
    <path fill="rgb(170,123,216)" d="m430.25735,477.26352a180,180 0 0 1 -169.14465,-61.5636l76.60443,-64.27875a80,80 0 0 0 75.17545,27.36157l17.36478,98.48077z"/>
    <path fill="rgb(130,100,159)" d="m261.1127,415.69992a180,180 0 0 1 -39.37737,-146.95847l98.48079,17.36484a80,80 0 0 0 17.50101,65.31488l-76.60443,64.27875z"/>
    <path fill="rgb(215,192,125)" d="m221.73534,268.74146a180,180 0 0 1 74.02162,-116.19067l57.35767,81.91519a80,80 0 0 0 -32.8985,51.64032l-98.48079,-17.36484z"/>
    <path fill="rgb(158,143,101)" d="m295.75696,152.55078a180,180 0 0 1 118.93182,-31.86768l-8.71558,99.61945a80,80 0 0 0 -52.85858,14.16342l-57.35767,-81.91519z"/>
    <path fill="rgb(129,216,147)" d="m414.68878,120.68311a180,180 0 0 1 100.01373,41.42703l-64.27875,76.60443a80,80 0 0 0 -44.45056,-18.41202l8.71558,-99.61945z"/>
    <path fill="rgb(124,146,216)" d="m514.70251,162.11014a180,180 0 0 1 53.44287,76.32437l-93.96927,34.20203a80,80 0 0 0 -23.75235,-33.92197l64.27875,-76.60443z"/>
    <path fill="rgb(217,125,193)" d="m568.14539,238.43451a180,180 0 0 1 10.85535,61.56363l-100,0a80,80 0 0 0 -4.82462,-27.3616l93.96927,-34.20203z"/>
   </g>
  </g>
  <ellipse stroke="#000" ry="179.00002" rx="178.50001" id="svg_2" cy="299.49995" cx="398.50003" fill="none"/>
  <ellipse id="svg_4" cy="144" cx="175" stroke="#000" fill="none"/>
 </g>
</svg>
