<?xml version="1.0" encoding="utf-8"?>
<svg version="1.1" id="Layer_1" xmlns="http://www.w3.org/2000/svg" xmlns:xlink="http://www.w3.org/1999/xlink" x="0px" y="0px" viewBox="0 0 306 300" style="enable-background:new 0 0 1081 310;" xml:space="preserve">
<style type="text/css">
	.st0{fill:#101010;}
	.st1{fill-rule:evenodd;clip-rule:evenodd;fill:#FCD72B;}
	.st2{fill:#FCD72B;}
</style>
<path class="st1" d="M106.7,301.4L118.9,173h-1.1c-9.7,0-17.7-3.5-25.1-9.8s-12.3-15.1-13.8-24.8l22.9-14.9v-0.2
	c0-10.1,3.9-19.9,10.9-27.2s16.5-11.7,26.6-12.1h6.8V60c4.8,0,9.5,1.7,13.2,4.9c3.7,3.1,6.1,7.5,7,12.3h0.3V59.9
	c3.6,0,7.2,1,10.3,2.8s5.7,4.5,7.5,7.7c1.8,3.2,2.7,6.8,2.6,10.4c-0.1,3.6-1.1,7.2-3,10.3c6.1,4,11.2,9.6,14.7,16.1
	s5.3,13.8,5.3,21.2v155c0,0.6,0.1,1.3,0.2,1.9c0.5,2.2,1.8,3.6,2.3,4.2c2.5,2.7,5.9,3.2,7.6,3.5c3.8,0.6,6.8-0.3,8.5-1
	c49.8-25.4,83.9-77.5,83.9-137.5c0-85.1-68.6-154.1-153.2-154.1C68.6,0.3,0,69.3,0,154.5C0,223.3,44.9,281.6,106.7,301.4z"/>
<path class="st2" d="M123.4,130.6c0-1.2,0.5-2.4,1.4-3.3c0.9-0.9,2.1-1.4,3.3-1.4h13.6c0,2.5-1,4.9-2.7,6.7
	c-1.8,1.8-4.1,2.8-6.6,2.8H123L123.4,130.6z"/>
</svg>
