<?xml version="1.0" encoding="utf-8"?>
<svg xmlns="http://www.w3.org/2000/svg" viewBox="0 0 500 500">
    <ellipse style="stroke: rgb(0, 0, 0); stroke-width: 1px; fill: rgb(255, 255, 255); paint-order: fill; fill-rule: nonzero;" cx="252.967" cy="259.165" rx="120.346" ry="114.702"/>
    <path d="M 334.61 417.03 C318.24,420.95 303.05,420.17 286.51,414.56 C275.33,410.77 257.73,401.73 253.00,397.33 C252.18,396.57 250.51,395.17 249.31,394.22 C233.99,382.20 217.66,366.25 208.00,353.88 C199.66,343.18 196.00,338.17 196.00,337.42 C196.00,337.09 195.10,335.67 194.00,334.27 C191.28,330.82 191.32,325.35 194.06,324.48 C196.61,323.67 203.24,327.87 202.50,329.83 C201.50,332.49 224.42,361.33 236.28,372.35 C257.86,392.40 276.50,403.44 295.50,407.43 C297.83,407.92 298.17,407.81 297.00,406.96 C295.89,406.14 298.23,406.01 306.00,406.47 C328.26,407.77 345.62,402.65 364.50,389.22 L 372.50 383.53 L 366.00 382.75 C362.42,382.32 358.49,382.14 357.25,382.34 C356.01,382.55 355.00,382.43 355.00,382.07 C355.00,381.71 352.38,380.83 349.17,380.12 C340.40,378.17 340.36,378.12 342.18,371.58 L 343.73 366.00 L 336.90 366.00 C329.19,366.00 329.06,365.89 327.06,357.36 L 325.85 352.22 L 320.18 355.14 C312.36,359.16 304.85,360.98 296.00,360.98 C283.42,360.98 271.59,356.68 257.65,347.04 C253.25,343.99 249.20,341.96 247.43,341.90 C245.40,341.83 246.35,341.36 250.50,340.37 C253.80,339.59 257.78,338.53 259.35,338.02 C262.46,337.02 263.02,337.32 268.20,342.73 C271.61,346.30 284.97,352.00 289.94,352.00 C292.40,352.00 293.63,351.06 296.82,346.75 C298.95,343.86 301.44,340.88 302.35,340.13 C303.26,339.37 304.00,338.31 304.00,337.77 C304.00,337.23 305.12,335.45 306.50,333.82 C310.31,329.30 309.85,325.61 305.16,322.97 L 301.32 320.81 L 308.80 313.16 C316.39,305.39 319.41,303.82 319.60,307.54 C319.66,308.67 320.16,310.47 320.72,311.54 C321.27,312.62 321.55,314.01 321.32,314.62 C320.90,315.79 330.28,354.52 332.08,359.08 C333.03,361.48 333.46,361.63 338.30,361.23 C341.16,360.99 343.84,360.48 344.26,360.09 C344.67,359.71 343.86,356.04 342.45,351.94 C339.87,344.46 339.07,333.78 340.61,327.24 C341.68,322.67 346.95,313.44 350.32,310.21 C354.34,306.36 362.98,301.65 369.61,299.70 C376.55,297.65 379.00,295.96 379.00,293.19 C379.00,291.28 377.68,287.63 376.46,286.18 C376.31,286.00 366.58,288.63 354.84,292.03 C343.10,295.43 332.60,298.46 331.50,298.77 C330.40,299.07 329.27,299.66 329.00,300.07 C328.49,300.82 323.91,301.42 320.74,301.15 C319.16,301.02 319.25,300.57 321.51,296.99 C323.70,293.52 325.67,289.10 328.36,281.61 C328.99,279.86 329.17,279.84 330.85,281.36 C331.84,282.26 333.40,283.00 334.32,283.00 C336.02,283.00 339.66,277.89 341.87,272.40 C342.86,269.95 343.60,269.39 345.39,269.73 C347.01,270.04 348.14,269.44 349.33,267.62 C350.91,265.21 350.90,265.02 349.13,264.07 C348.10,263.52 346.97,263.36 346.62,263.71 C346.03,264.30 352.00,249.11 352.79,248.01 C353.39,247.18 356.89,252.28 359.64,258.00 C362.45,263.87 364.90,274.11 364.96,280.25 C365.01,284.53 365.20,284.58 372.77,282.38 C373.18,282.26 373.55,282.15 373.90,282.04 C375.93,281.44 377.09,281.09 378.05,281.39 C379.49,281.85 380.47,283.77 383.27,288.49 C385.95,293.00 386.11,293.10 387.77,291.29 C388.72,290.27 390.69,288.40 392.14,287.14 L 394.78 284.86 L 400.89 291.05 C404.25,294.45 407.00,297.59 407.00,298.02 C407.00,298.46 408.58,300.70 410.50,303.00 C412.42,305.30 414.00,307.64 414.00,308.19 C414.00,308.74 414.88,310.31 415.96,311.68 L 417.92 314.17 L 418.40 311.83 C420.23,302.88 419.97,296.86 417.89,300.14 C417.27,301.13 417.03,300.87 417.02,299.19 C417.01,297.90 417.44,297.16 418.00,297.50 C418.55,297.84 419.00,297.19 419.00,296.06 C419.00,294.93 419.52,294.00 420.15,294.00 C421.89,294.00 420.46,275.10 418.02,265.81 C413.47,248.47 404.15,234.05 390.35,222.99 C382.39,216.61 364.86,206.47 363.74,207.59 C363.43,207.90 363.57,206.44 364.06,204.33 C364.55,202.22 364.96,200.16 364.98,199.75 C365.03,198.12 368.29,199.20 376.67,203.62 C388.36,209.78 397.90,217.01 407.08,226.65 C413.24,233.13 415.70,236.74 420.28,246.06 C423.38,252.35 426.64,260.20 427.54,263.50 C429.76,271.69 430.54,294.43 429.06,307.81 L 427.87 318.61 L 431.57 324.05 C443.39,341.43 444.94,358.06 436.03,371.83 C431.72,378.49 427.48,381.94 418.24,386.29 C411.79,389.32 410.93,389.47 398.40,389.56 L 385.29 389.66 L 376.90 396.19 C361.86,407.87 351.42,413.02 334.61,417.03 ZM 368.50 359.06 C380.19,361.92 394.26,358.14 402.60,349.90 C405.47,347.06 408.65,343.11 409.66,341.12 C410.67,339.13 412.58,335.81 413.90,333.73 C416.05,330.34 416.16,329.67 414.96,327.23 C414.23,325.73 413.49,323.22 413.32,321.66 C412.80,316.89 406.52,312.73 394.12,308.97 C380.27,304.76 365.27,307.50 356.67,315.80 C341.37,330.56 347.79,354.00 368.50,359.06 ZM 306.64 186.49 C305.87,188.49 304.67,188.40 302.65,186.17 C300.46,183.75 300.56,182.00 302.88,182.00 C305.28,182.00 307.40,184.53 306.64,186.49 Z" fill="rgb(10,90,140)"/>
    <path d="M 344.00 269.65 C344.00,269.67 344.01,269.68 344.02,269.70 C343.13,269.90 342.56,270.69 341.87,272.40 C339.66,277.89 336.02,283.00 334.32,283.00 C333.40,283.00 331.84,282.26 330.85,281.36 C329.79,280.41 329.33,280.06 328.98,280.37 C335.61,260.04 333.92,237.45 323.38,216.21 C310.33,189.90 280.83,172.18 249.86,172.03 C219.89,171.90 190.60,189.46 176.64,215.94 C174.01,220.92 171.49,225.00 171.04,225.00 C167.75,225.00 171.49,215.04 178.83,204.28 C188.30,190.39 207.00,176.62 222.75,171.94 C225.09,171.25 227.00,170.48 227.00,170.24 C227.00,169.99 221.18,164.19 214.07,157.34 L 201.15 144.90 L 204.71 138.92 C207.77,133.78 208.11,132.62 207.11,130.72 C206.46,129.50 206.15,129.24 206.40,130.15 C206.80,131.59 206.40,131.67 203.18,130.80 C198.49,129.51 197.50,128.52 201.71,129.32 C203.48,129.66 205.19,129.50 205.52,128.96 C205.91,128.34 206.79,128.35 207.99,128.99 C210.09,130.12 213.30,129.29 212.41,127.85 C212.09,127.33 212.53,125.85 213.38,124.54 C215.12,121.89 218.43,122.06 219.49,124.85 C220.95,128.66 229.80,139.00 233.53,141.25 C236.75,143.19 237.81,143.43 238.74,142.43 C239.64,141.47 239.59,140.91 238.52,140.02 C236.83,138.61 237.04,135.30 239.03,132.19 C239.84,130.93 244.18,128.16 248.67,126.05 C257.78,121.76 263.95,117.79 271.75,111.20 C275.67,107.88 277.61,106.88 279.43,107.23 C283.07,107.93 283.99,106.87 284.66,101.23 C285.04,98.02 285.83,95.90 286.78,95.53 C288.51,94.87 292.00,97.64 292.00,99.69 C292.00,100.44 292.63,101.31 293.41,101.60 C294.18,101.90 295.30,103.35 295.88,104.82 C296.47,106.29 297.48,108.85 298.14,110.50 C298.80,112.15 299.41,113.72 299.50,114.00 C299.60,114.28 299.95,115.18 300.28,116.00 C300.62,116.82 301.60,119.97 302.47,123.00 C304.30,129.41 303.68,130.37 296.91,131.52 C294.76,131.88 293.00,132.39 293.00,132.66 C293.00,132.92 294.46,135.84 296.25,139.15 L 299.50 145.15 L 272.83 170.56 L 279.79 173.28 C283.62,174.78 287.03,176.00 287.36,176.00 C287.70,176.00 290.16,177.35 292.85,179.00 C295.53,180.65 299.07,182.00 300.71,182.00 C303.62,182.00 303.73,181.82 304.81,175.35 C305.41,171.68 306.45,168.20 307.10,167.60 C307.97,166.80 308.12,166.81 307.67,167.62 C307.32,168.24 308.16,170.04 309.54,171.62 C310.91,173.20 312.56,175.96 313.22,177.75 C313.87,179.54 314.76,181.00 315.20,181.00 C315.64,181.00 316.01,181.79 316.03,182.75 C316.06,184.33 316.20,184.32 317.53,182.56 C318.34,181.49 319.00,181.06 319.00,181.61 C319.00,182.15 318.50,183.10 317.88,183.72 C317.06,184.54 317.06,186.11 317.88,189.67 C318.50,192.33 319.27,196.30 319.60,198.50 C319.92,200.70 320.59,202.98 321.07,203.58 C321.56,204.17 324.14,208.93 326.82,214.15 C333.12,226.45 336.16,237.67 336.79,250.92 L 337.28 261.34 L 340.19 254.93 C349.46,234.49 356.01,207.38 356.75,186.31 C357.52,164.43 354.99,151.36 346.99,135.89 C344.82,131.71 343.38,127.92 343.78,127.48 C344.17,127.04 344.00,126.97 343.38,127.32 C341.86,128.18 338.61,124.44 339.56,122.91 C340.00,122.19 339.89,121.95 339.29,122.32 C338.73,122.67 337.42,121.96 336.38,120.74 C334.53,118.58 334.54,118.56 336.41,120.02 C338.21,121.42 338.25,121.38 336.98,119.35 C336.19,118.08 335.04,117.43 334.16,117.77 C333.14,118.16 332.92,117.94 333.46,117.06 C333.97,116.24 333.29,114.96 331.61,113.51 C329.58,111.77 329.30,111.10 330.40,110.68 C331.19,110.37 332.10,110.82 332.43,111.67 C332.78,112.59 333.66,112.96 334.63,112.59 C337.16,111.62 345.36,118.54 350.42,125.92 C362.16,143.03 367.46,163.72 366.35,188.00 L 365.87 198.50 L 367.87 199.47 C365.88,198.79 365.00,198.91 364.98,199.75 C364.96,200.16 364.55,202.22 364.06,204.33 C363.57,206.44 363.43,207.90 363.74,207.59 C364.21,207.12 367.54,208.62 371.85,210.99 C367.28,208.58 363.85,207.28 363.55,208.18 C363.31,208.91 362.60,212.20 361.97,215.50 C360.53,223.04 356.43,237.89 354.37,243.02 C353.00,246.45 352.91,246.98 354.61,249.44 C353.70,248.27 353.02,247.69 352.79,248.01 C352.00,249.11 346.03,264.30 346.62,263.71 C346.84,263.50 347.35,263.47 347.95,263.61 C347.09,263.51 346.54,264.21 345.57,266.16 C344.71,267.89 344.00,269.46 344.00,269.65 ZM 262.00 168.74 C262.37,168.80 262.71,168.86 263.04,168.92 C264.40,169.15 265.39,169.33 266.35,169.22 C269.21,168.92 271.81,166.17 282.88,155.40 L 294.30 144.31 L 290.91 138.65 C289.05,135.54 287.22,133.00 286.85,133.00 C286.47,133.00 285.22,134.52 284.07,136.38 C281.75,140.14 273.42,148.53 270.22,150.34 C263.55,154.10 261.42,154.98 256.33,156.03 C242.98,158.81 226.26,150.80 218.00,137.67 C216.07,134.61 214.06,132.23 213.52,132.38 C212.98,132.53 211.01,135.28 209.14,138.48 L 205.73 144.31 L 218.61 156.57 L 231.50 168.83 L 244.00 168.33 C250.88,168.06 258.98,168.24 262.00,168.74 ZM 143.61 181.84 L 143.50 195.18 L 139.87 196.43 L 136.24 197.68 L 135.63 192.59 C133.39,173.93 137.20,149.85 144.29,137.98 L 146.67 133.98 L 146.83 138.02 C146.94,140.80 146.52,142.25 145.49,142.64 C143.82,143.28 143.54,146.72 144.98,149.00 C145.74,150.20 146.16,149.83 147.08,147.20 C147.71,145.38 148.42,144.08 148.64,144.31 C148.87,144.54 148.55,146.02 147.93,147.61 C147.32,149.20 146.68,151.40 146.52,152.50 C146.36,153.60 145.66,157.65 144.98,161.50 C144.29,165.35 143.68,174.50 143.61,181.84 ZM 324.80 290.68 C323.68,293.22 322.62,295.23 321.51,296.99 C319.25,300.57 319.16,301.02 320.74,301.15 C323.91,301.42 328.49,300.82 329.00,300.07 L 329.00 300.06 C329.00,300.08 329.00,300.10 329.00,300.12 C329.00,300.60 327.95,301.00 326.66,301.00 C325.11,301.00 323.44,302.23 321.72,304.66 C320.42,306.48 319.81,307.48 319.71,308.42 C319.65,308.10 319.62,307.80 319.60,307.54 C319.41,303.82 316.39,305.39 308.80,313.16 L 301.32 320.81 L 305.16 322.97 C305.63,323.23 306.05,323.51 306.44,323.79 C304.32,322.85 303.40,323.22 298.78,326.74 C291.96,331.95 285.27,335.26 275.97,338.03 C271.86,339.26 268.16,340.57 267.74,340.94 C267.32,341.31 267.48,341.89 268.07,342.60 C263.01,337.31 262.43,337.02 259.35,338.02 C257.78,338.53 253.80,339.59 250.50,340.37 C246.35,341.36 245.40,341.83 247.43,341.90 C248.36,341.93 249.92,342.51 251.83,343.49 C249.27,342.24 247.11,341.94 242.50,341.56 C237.41,341.13 233.30,340.18 231.19,338.94 C229.37,337.87 227.26,337.00 226.50,337.00 C225.74,337.00 224.88,336.61 224.59,336.14 C224.30,335.67 227.76,335.89 232.28,336.62 C251.00,339.67 269.42,337.71 283.30,331.20 C294.81,325.81 300.09,322.04 309.18,312.73 C315.72,306.02 320.94,298.59 324.80,290.68 ZM 228.08 375.68 C234.86,382.21 242.19,388.64 249.31,394.22 C249.67,394.50 250.07,394.82 250.47,395.16 C249.61,394.96 249.00,395.71 248.18,397.50 C247.56,398.88 246.23,400.00 245.24,400.00 C244.25,400.00 242.56,400.60 241.47,401.34 C235.39,405.47 225.14,410.14 221.87,410.27 C219.82,410.35 218.36,410.77 218.62,411.20 C218.89,411.63 218.49,411.74 217.74,411.45 C216.99,411.17 215.54,411.85 214.53,412.96 C213.37,414.25 211.44,415.00 209.31,415.00 C206.19,415.00 206.02,414.84 207.05,412.91 C207.67,411.75 210.27,409.93 212.84,408.86 C223.35,404.45 229.13,401.51 230.72,399.76 C231.64,398.74 233.99,397.16 235.95,396.24 C237.90,395.33 240.09,394.00 240.82,393.29 C241.55,392.58 242.67,392.00 243.32,391.99 C243.97,391.99 237.75,385.28 229.50,377.10 C229.02,376.62 228.55,376.15 228.08,375.68 ZM 166.52 281.25 C167.24,283.07 166.31,283.50 164.38,282.23 C163.24,281.49 155.42,266.52 152.67,259.82 C151.19,256.20 151.21,256.09 154.37,252.44 L 157.57 248.73 L 160.18 255.61 C161.62,259.40 163.48,266.33 164.31,271.00 C165.14,275.67 166.14,280.29 166.52,281.25 ZM 306.64 186.49 C307.40,184.53 305.28,182.00 302.88,182.00 C300.56,182.00 300.46,183.75 302.65,186.17 C304.67,188.40 305.87,188.49 306.64,186.49 ZM 308.95 96.44 C309.95,97.65 307.05,98.12 303.75,97.29 C302.02,96.86 301.29,95.11 302.75,94.89 C306.73,94.28 309.12,94.21 308.62,94.71 C308.29,95.04 308.44,95.82 308.95,96.44 ZM 326.00 106.09 C326.00,107.14 325.64,108.00 325.19,108.00 C323.92,108.00 320.38,105.08 321.50,104.96 C322.05,104.90 323.29,104.70 324.25,104.51 C325.42,104.29 326.00,104.81 326.00,106.09 ZM 300.00 94.61 C300.00,96.30 299.98,96.30 297.57,94.48 C295.39,92.82 295.88,91.63 298.36,92.58 C299.26,92.93 300.00,93.84 300.00,94.61 ZM 313.75 100.75 C314.33,102.48 312.79,102.25 311.12,100.36 C309.92,99.01 309.98,98.85 311.54,99.15 C312.52,99.34 313.52,100.06 313.75,100.75 ZM 416.52 312.39 C417.42,313.31 417.98,313.16 418.44,311.61 C418.43,311.69 418.41,311.76 418.40,311.83 L 417.92 314.17 ZM 288.95 351.94 C292.23,352.11 294.06,350.49 296.82,346.75 C293.63,351.06 292.40,352.00 289.94,352.00 C289.64,352.00 289.31,351.98 288.95,351.94 ZM 362.37 265.40 C364.02,270.68 365.00,276.14 365.00,280.83 C365.00,281.26 365.00,281.64 365.02,281.98 C364.98,281.50 364.97,280.93 364.96,280.25 C364.92,276.25 363.87,270.53 362.37,265.40 ZM 419.25 306.88 C419.29,306.54 419.33,306.18 419.37,305.81 C419.74,302.48 419.44,299.87 418.85,299.24 C419.71,299.19 419.87,302.23 419.25,306.88 ZM 253.59 344.46 C254.87,345.19 256.24,346.06 257.65,347.04 C263.36,350.99 268.72,354.04 273.92,356.27 C268.76,354.06 263.43,351.05 257.72,347.15 C256.06,346.02 254.74,345.14 253.59,344.46 ZM 264.05 404.44 C271.14,408.29 279.94,412.33 286.51,414.56 C279.64,412.23 271.00,408.26 264.05,404.44 ZM 309.00 327.57 C309.28,329.41 308.44,331.51 306.50,333.82 C308.27,331.71 309.10,329.45 309.00,327.57 ZM 197.29 339.69 C198.80,341.90 201.68,345.74 206.13,351.48 C203.68,348.40 201.26,345.22 198.75,341.78 C198.21,341.05 197.71,340.33 197.29,339.69 ZM 342.42 295.62 C346.08,294.56 350.37,293.32 354.84,292.03 C366.08,288.78 375.47,286.23 376.39,286.17 C375.47,286.23 366.08,288.79 354.84,292.05 C350.39,293.34 346.10,294.57 342.42,295.62 ZM 347.00 269.69 C347.85,269.27 348.77,268.47 349.37,267.55 L 349.33 267.62 C348.57,268.77 347.84,269.44 347.00,269.69 ZM 403.02 222.57 C404.39,223.89 405.75,225.24 407.08,226.64 C410.12,229.84 412.26,232.34 414.19,235.18 C412.26,232.35 410.12,229.85 407.08,226.65 C405.73,225.24 404.38,223.88 403.02,222.57 ZM 414.00 308.19 C414.00,307.64 412.42,305.30 410.50,303.00 C412.42,305.30 414.00,307.62 414.00,308.16 C414.00,308.35 414.11,308.69 414.30,309.09 C414.11,308.70 414.00,308.38 414.00,308.19 ZM 368.72 283.49 C369.76,283.25 371.08,282.87 372.77,282.38 C371.08,282.87 369.76,283.25 368.72,283.49 ZM 320.49 311.04 C320.55,311.18 320.62,311.32 320.68,311.46 C320.61,311.33 320.55,311.19 320.49,311.04 Z" fill="rgb(44,94,37)"/>
    <path d="M 348.86 194.26 C348.66,202.84 348.78,209.33 349.12,208.68 C350.97,205.16 352.50,191.92 352.49,179.50 C352.47,163.89 350.84,155.34 345.73,144.07 C337.50,125.91 321.15,110.59 301.26,102.42 C298.09,101.11 295.02,100.04 294.43,100.02 C294.02,100.01 294.28,101.29 294.99,103.16 C294.47,102.38 293.88,101.78 293.41,101.60 C292.63,101.31 292.00,100.44 292.00,99.69 C292.00,97.64 288.51,94.87 286.78,95.53 C285.83,95.90 285.04,98.02 284.66,101.23 C283.99,106.87 283.07,107.93 279.43,107.23 C277.61,106.88 275.67,107.88 271.75,111.20 C263.95,117.79 257.78,121.76 248.67,126.05 C244.18,128.16 239.84,130.93 239.03,132.19 C237.04,135.30 236.83,138.61 238.52,140.02 C239.59,140.91 239.64,141.47 238.74,142.43 C237.81,143.43 236.75,143.19 233.53,141.25 C229.80,139.00 220.95,128.66 219.49,124.85 C218.43,122.06 215.12,121.89 213.38,124.54 C212.53,125.85 212.09,127.33 212.41,127.85 C213.30,129.29 210.09,130.12 207.99,128.99 C206.79,128.35 205.91,128.34 205.52,128.96 C205.19,129.50 203.48,129.66 201.71,129.32 C197.50,128.52 198.49,129.51 203.18,130.80 C206.40,131.67 206.80,131.59 206.40,130.15 C206.15,129.24 206.46,129.50 207.11,130.72 C207.46,131.38 207.65,131.96 207.61,132.65 C206.88,132.26 205.19,131.66 203.25,131.13 C200.64,130.41 197.96,129.66 197.29,129.46 C195.08,128.79 201.65,110.78 208.06,99.89 C209.73,97.07 210.91,94.57 210.68,94.35 C209.12,92.79 185.76,103.54 178.27,109.26 C175.10,111.69 171.77,114.08 170.87,114.59 C169.97,115.09 166.83,118.43 163.89,122.00 C160.94,125.57 158.29,128.73 157.98,129.00 C156.43,130.40 149.85,144.43 147.66,151.00 C146.05,155.82 144.69,164.03 143.93,172.48 C144.19,167.94 144.57,163.79 144.98,161.50 C145.66,157.65 146.36,153.60 146.52,152.50 C146.68,151.40 147.32,149.20 147.93,147.61 C148.55,146.02 148.87,144.54 148.64,144.31 C148.42,144.08 147.71,145.38 147.08,147.20 C146.16,149.83 145.74,150.20 144.98,149.00 C143.54,146.72 143.82,143.28 145.49,142.64 C146.52,142.25 146.94,140.80 146.83,138.02 L 146.67 133.98 L 144.29 137.98 C143.45,139.39 142.65,140.97 141.91,142.69 C143.70,138.01 145.83,133.59 148.25,129.57 C153.33,121.14 163.07,110.55 172.00,103.75 C178.92,98.48 197.69,88.90 204.74,87.05 C208.78,85.98 209.16,85.54 213.02,77.46 C218.04,66.95 226.18,58.21 234.66,54.24 C239.87,51.80 241.64,51.50 251.00,51.51 C260.61,51.51 261.96,51.76 266.95,54.37 C275.53,58.88 283.43,67.50 288.10,77.47 C290.30,82.16 292.56,86.00 293.12,86.00 C293.69,86.00 298.83,87.83 304.55,90.06 C327.57,99.07 344.75,114.08 355.10,133.55 C353.68,130.93 352.12,128.39 350.42,125.92 C345.36,118.54 337.16,111.62 334.63,112.59 C333.66,112.96 332.78,112.59 332.43,111.67 C332.10,110.82 331.19,110.37 330.40,110.68 C329.30,111.10 329.58,111.77 331.61,113.51 C333.29,114.96 333.97,116.24 333.46,117.06 C332.92,117.94 333.14,118.16 334.16,117.77 C335.04,117.43 336.19,118.08 336.98,119.35 C338.25,121.38 338.21,121.42 336.41,120.02 C334.54,118.56 334.53,118.58 336.38,120.74 C337.42,121.96 338.73,122.67 339.29,122.32 C339.89,121.95 340.00,122.19 339.56,122.91 C338.61,124.44 341.86,128.18 343.38,127.32 C344.00,126.97 344.17,127.04 343.78,127.48 C343.38,127.92 344.82,131.71 346.99,135.89 C354.99,151.36 357.52,164.43 356.75,186.31 C356.01,207.38 349.46,234.49 340.19,254.93 L 337.28 261.34 L 336.79 250.92 C336.16,237.67 333.12,226.45 326.82,214.15 C326.59,213.71 326.37,213.27 326.15,212.84 L 327.50 215.14 L 327.81 207.82 C328.21,198.68 326.63,190.35 322.99,182.33 C318.36,172.10 310.32,161.68 305.00,159.02 C303.02,158.02 303.35,158.67 306.59,162.13 C308.84,164.53 311.71,167.62 312.97,169.00 C315.90,172.21 320.78,182.48 322.57,189.23 C323.35,192.13 323.98,197.81 323.99,201.85 C323.99,206.08 324.34,208.88 325.14,210.91 C323.14,207.09 321.45,204.04 321.07,203.58 C320.59,202.98 319.92,200.70 319.60,198.50 C319.27,196.30 318.50,192.33 317.88,189.67 C317.06,186.11 317.06,184.54 317.88,183.72 C318.50,183.10 319.00,182.15 319.00,181.61 C319.00,181.06 318.34,181.49 317.53,182.56 C316.20,184.32 316.06,184.33 316.03,182.75 C316.01,181.79 315.64,181.00 315.20,181.00 C314.76,181.00 313.87,179.54 313.22,177.75 C312.56,175.96 310.91,173.20 309.54,171.62 C308.16,170.04 307.32,168.24 307.67,167.62 C308.12,166.81 307.97,166.80 307.10,167.60 C306.45,168.20 305.41,171.68 304.81,175.35 C304.48,177.31 304.25,178.69 303.99,179.67 C304.00,179.48 304.00,179.28 304.00,179.06 C304.00,175.93 302.51,174.14 301.66,176.24 C300.85,178.26 301.01,172.88 301.91,168.26 C302.52,165.07 302.38,163.73 301.34,162.87 C301.31,162.84 301.27,162.81 301.24,162.78 C300.72,162.35 300.37,162.06 300.04,162.08 C299.36,162.11 298.75,163.45 296.83,167.50 L 294.46 172.50 L 288.03 172.22 C284.50,172.07 281.89,172.22 282.22,172.56 C282.50,172.83 284.98,174.40 288.10,176.29 C287.72,176.11 287.46,176.00 287.36,176.00 C287.03,176.00 283.62,174.78 279.79,173.28 L 272.83 170.56 L 299.50 145.15 L 296.25 139.15 C294.46,135.84 293.00,132.92 293.00,132.66 C293.00,132.39 294.76,131.88 296.91,131.52 C303.68,130.37 304.30,129.41 302.47,123.00 C301.60,119.97 300.62,116.82 300.28,116.00 C299.95,115.18 299.60,114.28 299.50,114.00 C299.41,113.72 298.80,112.15 298.14,110.50 L 296.84 107.22 C298.76,111.02 299.95,112.16 302.50,113.00 C310.03,115.48 334.00,133.87 334.00,137.15 C334.00,137.66 335.58,140.42 337.52,143.29 C342.16,150.17 346.51,161.70 348.01,171.09 C348.73,175.57 349.07,185.04 348.86,194.26 ZM 223.12 115.41 C226.59,116.87 238.23,116.52 244.00,114.78 C260.30,109.87 272.39,95.37 270.50,83.00 C270.12,80.53 269.69,77.05 269.55,75.28 C269.25,71.48 267.98,69.77 263.33,66.89 C256.71,62.81 242.56,60.31 237.70,62.38 C232.47,64.60 225.57,71.45 222.20,77.77 C216.23,88.97 214.17,104.41 218.00,109.27 C219.10,110.67 220.00,112.33 220.00,112.96 C220.00,113.58 221.40,114.69 223.12,115.41 ZM 207.78 151.29 L 214.07 157.34 C221.18,164.19 227.00,169.99 227.00,170.24 C227.00,170.48 225.09,171.25 222.75,171.94 C210.72,175.51 196.96,184.40 186.91,194.59 C187.87,193.57 188.86,192.56 189.91,191.53 C193.81,187.69 197.00,184.14 197.00,183.64 C197.00,183.12 194.36,182.96 191.00,183.27 C187.19,183.61 185.00,183.43 185.00,182.78 C185.00,182.21 186.35,179.38 188.00,176.50 C191.63,170.15 200.94,160.85 206.75,157.76 C209.09,156.52 211.00,155.26 211.00,154.96 C211.00,154.73 209.66,153.21 207.78,151.29 ZM 207.00 416.87 C190.70,420.81 177.94,420.44 160.67,415.50 C147.53,411.75 129.34,402.33 131.34,400.32 C131.79,399.87 137.19,402.11 143.33,405.29 C149.47,408.48 155.59,411.06 156.92,411.04 C158.25,411.02 160.07,411.66 160.96,412.47 C162.21,413.59 165.70,413.95 176.04,414.01 C197.07,414.12 205.61,413.21 209.76,410.39 C211.70,409.07 213.79,408.00 214.42,408.00 C214.61,408.00 214.89,407.94 215.26,407.83 C214.48,408.16 213.67,408.51 212.84,408.86 C210.27,409.93 207.67,411.75 207.05,412.91 C206.02,414.84 206.19,415.00 209.31,415.00 C211.44,415.00 213.37,414.25 214.53,412.96 C215.54,411.85 216.99,411.17 217.74,411.45 C218.49,411.74 218.89,411.63 218.62,411.20 C218.36,410.77 219.82,410.35 221.87,410.27 C223.80,410.19 228.14,408.55 232.63,406.36 C222.53,411.83 214.77,414.99 207.00,416.87 ZM 166.52 281.25 C166.14,280.29 165.14,275.67 164.31,271.00 C163.48,266.33 161.62,259.40 160.18,255.61 L 157.76 249.22 C158.34,248.77 158.91,248.37 159.42,248.05 C162.81,245.96 163.97,244.24 164.54,240.50 C166.43,228.18 166.93,226.54 171.62,216.89 C171.81,216.50 172.00,216.12 172.19,215.74 C169.66,221.19 169.00,225.00 171.04,225.00 C171.41,225.00 173.12,222.34 175.15,218.68 C173.05,222.93 171.31,227.38 169.98,232.00 C167.01,242.33 166.25,260.86 168.38,270.89 C170.01,278.54 169.86,280.00 167.47,280.00 C166.63,280.00 166.29,280.60 166.64,281.50 C166.99,282.43 166.80,282.93 166.21,282.96 C166.80,282.91 166.94,282.32 166.52,281.25 ZM 282.88 155.40 C277.51,160.63 274.13,163.96 271.75,166.05 C277.53,160.56 289.01,147.99 286.50,149.65 C283.04,151.94 274.29,152.96 275.54,150.93 C276.06,150.09 275.90,149.95 275.04,150.47 C274.35,150.90 273.48,150.77 273.11,150.18 C272.64,149.41 271.81,149.45 270.30,150.30 C269.47,150.76 268.71,151.19 268.01,151.57 C268.69,151.20 269.42,150.79 270.22,150.34 C273.42,148.53 281.75,140.14 284.07,136.38 C285.22,134.52 286.47,133.00 286.85,133.00 C287.22,133.00 289.05,135.54 290.91,138.65 L 294.30 144.31 ZM 258.27 337.63 C249.98,338.39 241.16,338.07 232.28,336.62 C227.76,335.89 224.30,335.67 224.59,336.14 C224.88,336.61 225.74,337.00 226.50,337.00 C227.26,337.00 229.37,337.87 231.19,338.94 C232.98,339.99 236.21,340.84 240.26,341.33 C229.99,340.17 220.01,337.29 211.55,333.02 C206.74,330.59 203.23,329.37 202.68,329.92 C202.27,330.33 203.15,332.14 204.89,334.84 C203.20,332.23 202.28,330.41 202.50,329.83 C203.24,327.87 196.61,323.67 194.06,324.48 C193.06,324.80 192.41,325.74 192.14,326.96 C192.31,325.69 192.77,324.61 193.53,323.98 C194.83,322.90 194.85,322.48 193.67,321.11 C192.04,319.22 190.85,315.00 191.94,315.00 C192.35,315.00 193.51,315.90 194.51,317.01 C196.85,319.60 210.40,328.29 215.53,330.50 C228.08,335.89 233.53,337.20 245.50,337.71 C250.16,337.91 254.36,337.89 258.27,337.63 ZM 229.14 149.24 C227.98,148.51 226.78,147.73 225.54,146.89 C222.48,144.82 221.06,144.41 219.29,145.08 C215.90,146.37 207.76,142.57 209.71,140.62 C210.05,140.28 210.05,140.00 209.70,140.00 C209.35,140.00 208.56,140.96 207.93,142.13 C206.89,144.07 207.91,145.38 219.08,156.58 L 227.64 165.16 L 218.61 156.57 L 205.73 144.31 L 209.14 138.48 C211.01,135.28 212.98,132.53 213.52,132.38 C214.06,132.23 216.07,134.61 218.00,137.67 C220.86,142.22 224.74,146.15 229.14,149.24 ZM 182.37 303.47 C184.86,307.03 186.47,310.21 185.95,310.53 C185.43,310.85 185.00,310.74 185.00,310.27 C185.00,309.81 183.65,308.64 182.01,307.66 C178.76,305.75 176.81,302.82 176.42,299.26 C176.01,295.53 177.60,296.65 182.37,303.47 ZM 304.00 337.77 C304.00,338.31 303.26,339.37 302.35,340.13 C303.26,339.37 304.00,338.11 304.00,337.33 C304.00,336.54 305.01,334.14 306.25,331.98 C308.41,328.22 308.43,328.01 306.71,326.29 C304.98,324.57 304.49,324.72 294.21,330.16 C293.57,330.49 292.91,330.83 292.24,331.17 C294.46,329.86 296.62,328.40 298.78,326.74 C303.40,323.22 304.32,322.85 306.44,323.79 C307.93,324.90 308.79,326.16 309.00,327.57 C309.10,329.45 308.27,331.71 306.50,333.82 C305.12,335.45 304.00,337.23 304.00,337.77 ZM 308.95 96.44 C308.44,95.82 308.29,95.04 308.62,94.71 C309.12,94.21 306.73,94.28 302.75,94.89 C301.29,95.11 302.02,96.86 303.75,97.29 C307.05,98.12 309.95,97.65 308.95,96.44 ZM 226.64 374.36 C225.94,373.66 225.22,372.92 224.48,372.16 C225.66,373.33 226.86,374.51 228.08,375.68 C228.55,376.15 229.02,376.62 229.50,377.10 C237.75,385.28 243.97,391.99 243.32,391.99 C242.67,392.00 241.55,392.58 240.82,393.29 C240.77,393.34 240.70,393.40 240.63,393.46 C241.52,392.45 241.23,391.39 240.28,389.50 C239.46,387.85 233.32,381.04 226.64,374.36 ZM 326.00 106.09 C326.00,104.81 325.42,104.29 324.25,104.51 C323.29,104.70 322.05,104.90 321.50,104.96 C320.38,105.08 323.92,108.00 325.19,108.00 C325.64,108.00 326.00,107.14 326.00,106.09 ZM 300.00 94.61 C300.00,93.84 299.26,92.93 298.36,92.58 C295.88,91.63 295.39,92.82 297.57,94.48 C299.98,96.30 300.00,96.30 300.00,94.61 ZM 313.75 100.75 C313.52,100.06 312.52,99.34 311.54,99.15 C309.98,98.85 309.92,99.01 311.12,100.36 C312.79,102.25 314.33,102.48 313.75,100.75 ZM 287.54 414.90 C299.54,418.84 310.86,420.22 322.47,419.09 C310.67,420.38 299.95,419.07 287.54,414.90 ZM 272.51 399.05 C261.02,393.09 249.18,384.33 236.28,372.35 C248.52,383.72 261.05,392.90 272.51,399.05 ZM 197.29 339.69 C197.71,340.33 198.21,341.05 198.75,341.78 C201.26,345.22 203.68,348.40 206.13,351.48 L 206.13 351.48 C206.26,351.63 206.38,351.79 206.50,351.96 C200.49,344.69 196.00,338.65 196.00,337.42 C196.00,337.67 196.42,338.41 197.29,339.69 ZM 239.87 402.38 C240.43,402.03 240.96,401.69 241.47,401.34 C242.56,400.60 244.25,400.00 245.24,400.00 C246.23,400.00 247.56,398.88 248.18,397.50 C247.56,398.88 246.34,400.00 245.49,400.00 C244.86,400.00 242.59,400.98 239.87,402.38 ZM 240.89 155.02 C246.10,156.62 251.44,157.05 256.33,156.03 C251.20,157.10 246.30,156.84 240.89,155.02 ZM 135.63 192.59 C134.57,183.78 134.76,174.48 136.07,165.41 C134.84,174.48 134.61,184.10 135.63,192.59 ZM 302.18 181.92 C301.79,181.99 301.31,182.00 300.71,182.00 C299.17,182.00 295.97,180.82 293.36,179.31 C296.53,180.94 299.25,181.93 300.75,181.95 C301.32,181.96 301.79,181.96 302.18,181.92 ZM 262.00 168.74 C260.68,168.52 258.41,168.37 255.69,168.28 C258.41,168.36 260.69,168.51 262.00,168.72 C264.41,169.10 265.94,169.24 267.09,169.09 C266.84,169.15 266.60,169.20 266.35,169.22 C265.39,169.33 264.40,169.15 263.04,168.92 C262.71,168.86 262.37,168.80 262.00,168.74 ZM 230.27 400.19 C229.22,401.10 227.25,402.27 224.29,403.73 C226.81,402.41 229.13,401.06 230.27,400.19 ZM 273.18 409.08 C276.10,410.45 279.06,411.74 281.88,412.85 C280.93,412.49 279.97,412.10 279.00,411.70 C277.25,410.99 275.27,410.09 273.18,409.08 ZM 155.15 251.53 L 154.37 252.44 C153.69,253.22 153.16,253.84 152.76,254.36 C153.00,254.02 153.29,253.65 153.63,253.22 C154.03,252.70 154.56,252.12 155.15,251.53 ZM 277.13 337.68 C276.73,337.82 276.35,337.94 276.00,338.04 C271.88,339.26 268.17,340.56 267.74,340.94 C268.17,340.56 271.87,339.26 275.97,338.03 C276.36,337.92 276.75,337.80 277.13,337.68 ZM 236.52 395.97 C236.33,396.06 236.14,396.15 235.95,396.24 C234.44,396.95 232.70,398.05 231.56,398.98 C232.59,398.10 234.32,397.00 235.89,396.26 C236.11,396.16 236.31,396.06 236.52,395.97 ZM 203.14 141.56 L 201.21 144.79 L 201.20 144.77 ZM 263.30 153.94 C261.03,154.93 259.15,155.45 256.33,156.03 C259.14,155.45 261.04,154.93 263.30,153.94 ZM 249.49 342.58 C250.29,342.81 251.04,343.11 251.83,343.49 C251.89,343.52 251.95,343.55 252.00,343.58 C251.15,343.15 250.34,342.83 249.49,342.58 ZM 253.59 344.46 C254.74,345.14 256.06,346.02 257.72,347.15 C255.97,345.96 254.60,345.05 253.41,344.35 C253.47,344.39 253.53,344.42 253.59,344.46 ZM 250.49 395.17 C250.19,395.09 249.91,395.13 249.66,395.29 C249.91,395.13 250.18,395.09 250.47,395.16 Z" fill="rgb(76,132,57)"/>
    <path d="M 272.51 399.05 C261.05,392.90 248.52,383.72 236.28,372.35 C227.00,363.73 210.96,344.21 204.89,334.84 L 204.89 334.84 C203.98,333.43 203.31,332.26 202.93,331.40 C202.98,331.47 203.03,331.54 203.09,331.61 C204.55,333.36 205.47,332.68 204.63,330.48 C204.56,330.30 204.47,330.14 204.38,330.00 C205.96,330.42 208.49,331.48 211.55,333.02 C220.01,337.29 229.99,340.17 240.26,341.33 L 240.26 341.33 C240.98,341.42 241.73,341.49 242.50,341.56 C245.69,341.83 247.71,342.05 249.49,342.58 C250.34,342.83 251.15,343.15 252.00,343.58 C252.45,343.82 252.92,344.07 253.41,344.35 L 253.41 344.35 C254.60,345.05 255.97,345.96 257.72,347.15 C263.43,351.05 268.76,354.06 273.91,356.26 L 273.92 356.27 C281.41,359.48 288.58,360.98 296.00,360.98 C304.85,360.98 312.36,359.16 320.18,355.14 L 325.85 352.22 L 327.06 357.36 C329.06,365.89 329.19,366.00 336.90,366.00 L 343.73 366.00 L 342.18 371.58 C340.36,378.12 340.40,378.17 349.17,380.12 C352.38,380.83 355.00,381.71 355.00,382.07 C355.00,382.43 356.01,382.55 357.25,382.34 C358.49,382.14 362.42,382.32 366.00,382.75 L 370.89 383.34 L 365.76 382.76 C359.33,382.05 359.02,382.12 353.92,385.55 C351.04,387.49 348.00,389.46 347.16,389.93 C344.68,391.32 347.93,393.79 351.83,393.48 C354.80,393.25 354.92,393.35 353.29,394.66 C351.87,395.80 352.15,395.78 354.66,394.57 C356.39,393.73 358.58,392.27 359.53,391.33 C360.47,390.38 362.02,389.55 362.95,389.48 C363.57,389.44 364.85,388.83 366.26,387.97 L 364.50 389.22 C345.62,402.65 328.26,407.77 306.00,406.47 C298.23,406.01 295.89,406.14 297.00,406.96 C298.17,407.81 297.83,407.92 295.50,407.43 C287.85,405.82 280.26,403.07 272.51,399.05 ZM 416.52 312.39 L 415.96 311.68 C415.26,310.79 414.64,309.81 414.30,309.09 C414.11,308.69 414.00,308.35 414.00,308.16 C414.00,308.08 413.96,307.96 413.90,307.80 L 414.50 308.73 L 415.29 305.11 C415.73,303.13 415.95,299.48 415.79,297.00 C415.55,293.22 415.14,292.45 413.29,292.19 C411.62,291.95 410.91,292.50 410.43,294.43 C410.08,295.84 409.45,296.78 409.03,296.52 C407.29,295.44 408.72,299.83 411.50,304.11 L 412.03 304.93 C411.57,304.31 411.05,303.65 410.50,303.00 C408.58,300.70 407.00,298.46 407.00,298.02 C407.00,297.59 404.25,294.45 400.89,291.05 L 394.78 284.86 L 392.14 287.14 C390.69,288.40 388.72,290.27 387.77,291.29 C386.11,293.10 385.95,293.00 383.27,288.49 C380.47,283.77 379.49,281.85 378.05,281.39 C377.09,281.09 375.93,281.44 373.90,282.04 C373.55,282.15 373.18,282.26 372.77,282.38 C371.08,282.87 369.76,283.25 368.72,283.49 C365.86,284.17 365.19,283.82 365.02,281.98 C365.00,281.64 365.00,281.26 365.00,280.83 C365.00,276.14 364.02,270.68 362.37,265.40 C361.56,262.64 360.62,260.05 359.64,258.00 C357.97,254.52 356.02,251.27 354.61,249.44 C352.91,246.98 353.00,246.45 354.37,243.02 C356.43,237.89 360.53,223.04 361.97,215.50 C362.60,212.20 363.31,208.91 363.55,208.18 C363.85,207.28 367.28,208.58 371.85,210.99 L 371.85 210.99 C377.84,214.29 385.72,219.28 390.35,222.99 C404.15,234.05 413.47,248.47 418.02,265.81 C420.46,275.10 421.89,294.00 420.15,294.00 C419.52,294.00 419.00,294.93 419.00,296.06 C419.00,297.19 418.55,297.84 418.00,297.50 C417.44,297.16 417.01,297.90 417.02,299.19 C417.03,300.87 417.27,301.13 417.89,300.14 C418.27,299.54 418.59,299.25 418.85,299.24 C419.44,299.87 419.74,302.48 419.37,305.81 C419.33,306.18 419.29,306.54 419.25,306.88 C419.05,308.32 418.79,309.91 418.44,311.61 C417.98,313.16 417.42,313.31 416.52,312.39 ZM 368.50 359.06 C347.79,354.00 341.37,330.56 356.67,315.80 C365.27,307.50 380.27,304.76 394.12,308.97 C406.52,312.73 412.80,316.89 413.32,321.66 C413.49,323.22 414.23,325.73 414.96,327.23 C416.16,329.67 416.05,330.34 413.90,333.73 C412.58,335.81 410.67,339.13 409.66,341.12 C408.65,343.11 405.47,347.06 402.60,349.90 C394.26,358.14 380.19,361.92 368.50,359.06 ZM 362.89 339.56 C363.14,339.80 364.28,339.40 365.42,338.67 C367.46,337.35 375.32,335.20 385.77,333.09 C391.92,331.85 395.92,329.17 399.66,323.77 C402.92,319.06 402.17,317.95 394.07,315.59 C386.34,313.33 375.33,313.53 368.60,316.05 C360.22,319.18 354.00,327.38 354.00,335.27 C354.00,338.49 354.15,338.62 358.22,338.86 C360.54,338.99 362.64,339.31 362.89,339.56 ZM 320.49 311.04 C320.41,310.87 320.34,310.68 320.27,310.49 C321.75,313.00 330.57,325.71 335.88,332.95 L 338.40 336.39 L 340.04 329.95 C340.11,329.68 340.17,329.42 340.24,329.16 C339.24,335.73 340.11,345.16 342.45,351.94 C343.86,356.04 344.67,359.71 344.26,360.09 C343.84,360.48 341.16,360.99 338.30,361.23 C333.46,361.63 333.03,361.48 332.08,359.08 C330.28,354.52 320.90,315.79 321.32,314.62 C321.55,314.01 321.27,312.62 320.72,311.54 C320.62,311.32 320.55,311.18 320.49,311.04 ZM 342.42 295.62 C346.10,294.57 350.39,293.34 354.84,292.05 C366.08,288.79 375.47,286.23 376.39,286.17 C376.43,286.17 376.45,286.17 376.46,286.18 C377.68,287.63 379.00,291.28 379.00,293.19 C379.00,295.96 376.55,297.65 369.61,299.70 C363.04,301.63 354.48,306.28 350.42,310.11 C352.07,308.44 353.87,307.00 355.82,305.79 L 359.50 303.50 L 345.50 302.34 C344.67,302.27 343.87,302.20 343.11,302.14 C330.90,301.12 326.74,300.78 324.59,301.69 C325.30,301.23 325.99,301.00 326.66,301.00 C327.95,301.00 329.00,300.60 329.00,300.12 C329.00,300.10 329.00,300.08 329.00,300.06 C329.29,299.65 330.41,299.07 331.50,298.77 C332.18,298.58 336.47,297.34 342.42,295.62 ZM 282.50 366.98 C289.53,368.26 301.74,367.32 309.56,364.91 C313.21,363.78 315.97,362.64 315.70,362.36 C315.42,362.09 312.82,362.57 309.92,363.43 C302.55,365.62 288.17,365.48 280.00,363.14 C276.42,362.12 270.70,359.87 267.28,358.14 C260.39,354.66 246.09,345.29 244.44,343.17 C243.86,342.42 242.35,341.97 241.08,342.16 C238.82,342.49 238.84,342.57 242.14,346.03 C250.75,355.09 268.91,364.51 282.50,366.98 ZM 366.98 265.28 C367.69,267.91 368.47,269.86 368.72,269.62 C370.37,267.96 362.52,248.06 357.88,242.13 C356.31,240.13 355.93,240.01 355.41,241.37 C355.04,242.33 355.86,244.23 357.46,246.13 C360.85,250.17 365.31,259.13 366.98,265.28 ZM 344.00 269.65 C344.00,269.46 344.71,267.89 345.57,266.16 C346.54,264.21 347.09,263.51 347.95,263.61 C348.32,263.70 348.74,263.86 349.13,264.07 C350.88,265.01 350.91,265.21 349.37,267.55 C348.77,268.47 347.85,269.27 347.00,269.69 C346.51,269.84 345.98,269.85 345.39,269.73 C344.85,269.63 344.40,269.61 344.02,269.70 C344.01,269.68 344.00,269.67 344.00,269.65 ZM 343.23 320.76 C344.86,317.22 346.83,314.12 349.13,311.50 C347.21,313.80 344.96,317.38 343.23,320.76 ZM 369.66 385.55 L 372.34 383.51 L 372.50 383.53 ZM 319.74 308.55 C319.73,308.51 319.72,308.46 319.71,308.42 C319.80,307.49 320.42,306.49 321.69,304.70 C320.43,306.47 319.82,307.59 319.74,308.55 Z" fill="rgb(68,156,200)"/>
    <path d="M 230.27 400.19 C229.13,401.06 226.81,402.41 224.29,403.73 C221.92,404.91 218.92,406.27 215.26,407.83 C214.89,407.94 214.61,408.00 214.42,408.00 C213.79,408.00 211.70,409.07 209.76,410.39 C205.61,413.21 197.07,414.12 176.04,414.01 C165.70,413.95 162.21,413.59 160.96,412.47 C160.07,411.66 158.25,411.02 156.92,411.04 C155.59,411.06 149.47,408.48 143.33,405.29 C137.19,402.11 131.79,399.87 131.34,400.32 C130.77,400.90 131.84,402.07 133.97,403.55 C129.97,401.09 127.15,398.84 126.59,397.37 C126.30,396.62 125.53,396.00 124.88,396.00 C124.24,396.00 121.82,394.46 119.52,392.57 L 115.33 389.14 L 105.90 389.70 C100.47,390.03 94.28,389.80 91.32,389.16 C69.91,384.57 56.26,365.99 59.88,346.36 C61.39,338.14 64.98,330.03 70.12,323.23 L 74.16 317.88 L 72.44 307.69 C70.09,293.69 70.86,272.53 74.09,262.50 C75.33,258.65 76.44,255.02 76.56,254.42 C76.68,253.83 78.15,250.57 79.83,247.18 C89.08,228.54 105.08,213.36 126.93,202.48 L 135.86 198.04 L 135.63 192.59 L 136.24 197.68 L 139.87 196.43 L 143.50 195.18 L 143.58 185.36 C143.60,185.63 143.63,185.89 143.65,186.15 L 144.30 193.18 L 147.40 192.70 C149.11,192.43 152.98,191.45 156.00,190.51 C159.02,189.58 165.55,187.94 170.50,186.87 C175.45,185.81 180.18,184.76 181.00,184.54 C181.82,184.33 182.80,184.12 183.16,184.08 C183.50,184.04 185.12,181.61 186.88,178.53 C185.78,180.60 185.00,182.34 185.00,182.78 C185.00,183.43 187.19,183.61 191.00,183.27 C194.36,182.96 197.00,183.12 197.00,183.64 C197.00,184.14 193.81,187.69 189.91,191.53 C188.86,192.56 187.87,193.57 186.91,194.59 C184.46,197.07 182.22,199.64 180.29,202.23 C181.64,200.33 183.01,198.57 184.36,197.00 C186.66,194.33 187.02,193.43 185.86,193.21 C183.21,192.70 161.75,197.76 151.32,201.34 C116.99,213.15 94.97,231.41 85.11,256.21 C78.48,272.91 77.33,291.28 81.60,312.25 C82.38,316.08 83.26,315.71 85.82,310.43 C88.57,304.77 94.44,296.75 100.94,289.79 L 105.87 284.50 L 110.36 288.88 L 114.84 293.26 L 118.01 287.63 C119.76,284.53 121.59,281.75 122.07,281.45 C122.56,281.15 125.33,281.63 128.23,282.51 C143.28,287.10 171.29,295.04 171.53,294.79 C172.06,294.21 167.47,284.00 166.68,284.00 C165.01,284.00 163.04,281.06 158.03,271.15 C155.21,265.57 152.78,261.00 152.63,261.00 C152.48,261.00 150.36,261.69 147.93,262.54 C145.11,263.51 142.59,265.32 141.00,267.51 C138.48,270.97 137.00,271.88 137.00,269.97 C137.00,267.27 141.46,256.18 144.39,251.61 C148.04,245.90 156.86,237.52 161.59,235.26 C163.89,234.16 165.15,232.49 166.50,228.73 C168.10,224.28 170.13,219.69 172.40,215.29 C172.33,215.44 172.26,215.59 172.19,215.74 C172.00,216.12 171.81,216.50 171.62,216.89 C166.93,226.54 166.43,228.18 164.54,240.50 C163.97,244.24 162.81,245.96 159.42,248.05 C158.91,248.37 158.34,248.77 157.76,249.22 L 157.57 248.73 L 155.15 251.53 C154.56,252.12 154.03,252.70 153.63,253.22 C153.29,253.65 153.00,254.02 152.76,254.36 C151.27,256.30 151.50,256.97 152.67,259.82 C155.42,266.52 163.24,281.49 164.38,282.23 C165.18,282.76 165.80,282.99 166.21,282.96 C166.80,282.93 166.99,282.43 166.64,281.50 C166.29,280.60 166.63,280.00 167.47,280.00 C169.36,280.00 169.85,279.09 169.17,274.94 C169.35,275.77 169.55,276.56 169.77,277.30 C172.21,285.75 176.44,294.62 181.46,302.19 C177.40,296.53 176.04,295.78 176.42,299.26 C176.81,302.82 178.76,305.75 182.01,307.66 C183.65,308.64 185.00,309.81 185.00,310.27 C185.00,310.74 185.43,310.85 185.95,310.53 C186.40,310.25 185.26,307.84 183.33,304.89 C185.74,308.23 188.29,311.26 190.89,313.79 C191.35,314.23 191.83,314.68 192.33,315.13 C192.17,315.05 192.03,315.00 191.94,315.00 C190.85,315.00 192.04,319.22 193.67,321.11 C194.85,322.48 194.83,322.90 193.53,323.98 C192.77,324.61 192.31,325.69 192.14,326.96 C192.12,327.03 192.11,327.10 192.09,327.18 C192.23,325.84 192.66,324.70 193.41,324.08 C194.57,323.11 193.96,322.10 189.84,318.25 C184.13,312.91 183.84,313.06 182.03,322.38 C181.37,325.75 180.25,330.52 179.52,333.00 C178.80,335.48 177.25,341.55 176.07,346.50 C174.90,351.45 173.34,357.75 172.61,360.50 L 171.29 365.50 L 164.14 365.79 C160.21,365.96 157.00,366.45 157.00,366.88 C157.00,367.32 157.63,369.79 158.41,372.36 C159.71,376.69 159.68,377.10 157.97,378.01 C153.70,380.30 138.54,382.57 125.05,382.93 C122.62,383.00 122.63,383.02 125.93,386.43 C127.76,388.31 130.07,389.80 131.06,389.72 C132.05,389.65 132.64,389.23 132.37,388.79 C131.32,387.08 134.34,388.14 138.32,390.87 C145.14,395.55 156.39,400.83 165.23,403.50 C172.70,405.76 174.86,405.97 187.50,405.66 C204.47,405.24 212.47,402.99 227.00,394.53 C234.87,389.94 237.86,388.24 238.74,387.37 C239.54,388.35 240.08,389.09 240.28,389.50 C241.23,391.39 241.52,392.45 240.63,393.46 C239.86,394.12 238.16,395.15 236.52,395.97 C236.31,396.06 236.11,396.16 235.89,396.26 C234.32,397.00 232.59,398.10 231.56,398.98 C231.22,399.26 230.93,399.53 230.72,399.76 C230.59,399.90 230.45,400.04 230.27,400.19 ZM 86.00 376.07 C95.63,378.27 110.84,374.22 117.83,367.60 C123.21,362.51 125.74,357.70 127.56,349.14 C129.78,338.63 128.91,319.22 126.05,315.50 C125.62,314.95 124.99,313.29 124.64,311.82 C123.87,308.60 121.50,307.70 114.19,307.87 C106.95,308.04 100.86,309.96 93.00,314.56 C78.17,323.25 69.12,336.42 68.21,350.65 C67.65,359.31 69.32,364.72 74.11,369.82 C77.37,373.28 80.13,374.73 86.00,376.07 ZM 154.85 361.33 C157.33,361.99 168.00,362.08 168.00,361.44 C168.00,361.14 170.96,349.14 174.57,334.78 L 181.15 308.67 L 178.30 304.61 C175.50,300.64 175.10,300.45 158.97,295.73 C128.35,286.76 124.74,285.96 122.77,287.72 C121.82,288.57 121.29,289.66 121.58,290.13 C121.88,290.61 121.74,291.00 121.27,291.00 C120.11,291.00 116.77,296.82 117.38,297.80 C117.65,298.24 119.81,298.70 122.19,298.81 C137.74,299.56 151.40,307.60 157.41,319.55 C162.62,329.90 161.85,345.42 155.57,356.66 C153.47,360.41 153.39,360.94 154.85,361.33 ZM 226.64 374.36 C230.86,378.57 234.85,382.84 237.44,385.83 C236.05,385.96 233.38,387.15 228.94,389.55 C217.87,395.54 206.56,398.77 193.71,399.60 C184.38,400.21 182.56,400.02 173.97,397.56 C164.45,394.84 160.11,392.64 165.00,393.02 C166.38,393.13 167.73,393.14 168.00,393.03 C168.27,392.93 169.27,392.70 170.21,392.52 C173.56,391.87 182.52,388.72 183.74,387.75 C184.42,387.21 184.76,386.41 184.48,385.98 C183.82,384.90 192.73,378.45 198.27,376.00 C202.80,374.00 206.30,371.00 204.12,371.00 C203.51,371.00 203.00,370.33 203.00,369.50 C203.00,368.32 204.42,368.00 209.75,367.98 C218.49,367.96 219.86,367.12 216.26,363.94 C213.77,361.74 212.76,361.54 206.00,361.82 C200.94,362.03 197.04,361.62 194.00,360.53 C183.40,356.75 181.25,354.65 186.75,353.43 C188.26,353.09 192.55,351.69 196.27,350.31 L 203.05 347.81 L 202.25 346.69 C203.54,348.33 204.97,350.10 206.50,351.96 C206.99,352.57 207.48,353.21 208.00,353.88 C212.37,359.47 218.10,365.79 224.48,372.16 C225.22,372.92 225.94,373.66 226.64,374.36 ZM 288.95 351.94 C283.40,351.32 271.41,346.09 268.20,342.73 L 268.07 342.60 C267.48,341.89 267.32,341.31 267.74,340.94 L 267.74 340.94 C268.17,340.56 271.88,339.26 276.00,338.04 C276.35,337.94 276.73,337.82 277.13,337.68 C282.95,335.88 287.74,333.83 292.24,331.17 C292.91,330.83 293.57,330.49 294.21,330.16 C304.49,324.72 304.98,324.57 306.71,326.29 C308.43,328.01 308.41,328.22 306.25,331.98 C305.01,334.14 304.00,336.54 304.00,337.33 C304.00,338.11 303.26,339.37 302.35,340.13 C301.44,340.88 298.95,343.86 296.82,346.75 C294.06,350.49 292.23,352.11 288.95,351.94 ZM 235.50 279.19 C228.25,280.12 212.47,279.91 210.78,278.86 C208.03,277.17 211.58,276.88 226.16,277.63 C239.87,278.33 240.86,278.50 235.50,279.19 ZM 104.40 298.23 C106.15,299.40 112.00,299.11 112.00,297.86 C112.00,297.23 110.65,295.43 109.00,293.85 C106.11,291.09 105.95,291.05 104.19,292.81 C102.34,294.66 102.43,296.92 104.40,298.23 ZM 149.41 373.85 C149.84,374.54 150.93,374.95 151.84,374.76 C153.50,374.42 153.67,372.32 152.46,367.14 C151.93,364.90 151.81,364.86 150.03,366.47 C148.17,368.15 147.90,371.41 149.41,373.85 ZM 194.52 317.02 C202.74,323.80 214.52,330.38 225.03,334.25 C222.24,333.29 219.19,332.07 215.53,330.50 C210.41,328.30 196.91,319.64 194.52,317.02 ZM 168.50 271.48 C168.46,271.28 168.42,271.09 168.38,270.89 C166.89,263.89 166.81,252.76 167.91,243.16 C166.96,252.29 167.16,263.17 168.50,271.48 ZM 152.28 123.68 C157.61,116.35 164.18,109.71 172.00,103.75 C165.06,109.04 157.63,116.61 152.28,123.68 ZM 216.12 179.37 C226.69,174.60 238.22,171.98 249.86,172.03 C252.12,172.05 254.38,172.15 256.62,172.34 C242.44,171.22 228.57,173.79 216.12,179.37 ZM 292.03 183.54 C305.50,191.31 316.64,202.62 323.38,216.21 C316.78,202.90 305.54,191.43 292.03,183.54 ZM 258.27 337.63 C255.31,337.83 252.17,337.88 248.79,337.81 C253.38,337.76 258.27,337.54 262.19,337.18 C260.90,337.36 259.60,337.51 258.27,337.63 ZM 332.81 259.54 C332.46,266.64 331.18,273.63 328.98,280.37 C328.92,280.42 328.86,280.50 328.80,280.59 C331.08,273.67 332.42,266.63 332.81,259.54 ZM 315.58 305.41 C313.61,307.93 311.48,310.37 309.18,312.73 C307.55,314.40 306.04,315.89 304.59,317.25 C308.39,313.64 312.36,309.36 315.58,305.41 ZM 285.94 329.95 C285.10,330.36 284.22,330.78 283.30,331.20 C281.08,332.25 278.74,333.17 276.30,333.98 C279.45,332.85 282.75,331.46 285.94,329.95 ZM 143.97 137.75 C143.24,139.36 142.55,141.01 141.91,142.69 C141.55,143.53 141.20,144.39 140.86,145.29 C141.79,142.71 142.82,140.20 143.97,137.75 ZM 170.59 229.99 C171.83,226.08 173.36,222.31 175.15,218.68 C175.21,218.58 175.27,218.47 175.33,218.37 C173.48,222.07 171.89,225.95 170.59,229.99 ZM 197.49 164.99 C200.68,161.87 204.00,159.22 206.75,157.76 C204.10,159.17 200.72,161.87 197.49,164.99 ZM 324.80 290.68 C324.37,291.57 323.92,292.45 323.45,293.32 C324.16,291.94 324.83,290.55 325.46,289.15 C325.24,289.68 325.02,290.19 324.80,290.68 ZM 147.05 153.01 C147.25,152.29 147.45,151.62 147.66,151.00 C148.86,147.37 151.41,141.48 153.71,136.69 C151.41,141.48 148.87,147.38 147.67,151.00 C147.46,151.63 147.25,152.30 147.05,153.01 Z" fill="rgb(141,130,40)"/>
    <path d="M 143.61 181.84 C143.64,178.86 143.76,175.58 143.93,172.48 C144.59,165.11 145.71,157.92 147.05,153.01 L 147.05 153.01 C147.25,152.30 147.46,151.63 147.67,151.00 C148.87,147.38 151.41,141.48 153.71,136.69 C155.58,132.79 157.29,129.63 157.98,129.00 C158.29,128.73 160.94,125.57 163.89,122.00 C166.83,118.43 169.97,115.09 170.87,114.59 C171.77,114.08 175.10,111.69 178.27,109.26 C185.76,103.54 209.12,92.79 210.68,94.35 C210.91,94.57 209.73,97.07 208.06,99.89 C207.38,101.06 206.69,102.30 206.01,103.60 C207.11,101.25 207.81,99.47 207.66,99.33 C207.47,99.14 204.03,100.34 200.02,101.99 C196.01,103.65 192.33,105.00 191.85,105.00 C188.66,105.00 170.34,120.43 164.42,128.12 C155.56,139.61 148.98,156.62 149.02,167.91 C149.03,171.24 149.30,172.09 150.00,171.00 C150.86,169.67 150.98,169.67 151.06,171.00 C151.10,171.82 152.01,169.45 153.08,165.71 C157.26,151.04 163.16,140.86 173.32,130.77 C180.14,124.01 184.81,120.67 194.75,115.48 C200.61,112.42 201.96,111.44 204.08,107.48 C199.27,117.58 195.55,128.93 197.29,129.46 C197.96,129.66 200.64,130.41 203.25,131.13 C205.19,131.66 206.88,132.26 207.61,132.65 C207.54,133.92 206.70,135.58 204.71,138.92 L 203.14 141.56 L 201.20 144.77 L 201.21 144.79 L 201.15 144.90 L 207.78 151.29 C209.66,153.21 211.00,154.73 211.00,154.96 C211.00,155.26 209.09,156.52 206.75,157.76 C204.00,159.22 200.68,161.87 197.49,164.99 L 197.49 164.99 C193.63,168.72 189.98,173.05 188.00,176.50 C187.61,177.19 187.23,177.87 186.88,178.53 C185.12,181.61 183.50,184.04 183.16,184.08 C182.80,184.12 181.82,184.33 181.00,184.54 C180.18,184.76 175.45,185.81 170.50,186.87 C165.55,187.94 159.02,189.58 156.00,190.51 C152.98,191.45 149.11,192.43 147.40,192.70 L 144.30 193.18 L 143.65 186.15 C143.63,185.89 143.60,185.63 143.58,185.36 ZM 223.12 115.41 C221.40,114.69 220.00,113.58 220.00,112.96 C220.00,112.33 219.10,110.67 218.00,109.27 C214.17,104.41 216.23,88.97 222.20,77.77 C225.57,71.45 232.47,64.60 237.70,62.38 C241.37,60.81 250.36,61.86 257.39,64.23 C255.44,63.78 253.18,63.60 250.38,63.59 C244.18,63.56 242.62,63.95 238.38,66.56 C232.18,70.38 224.44,80.45 223.52,85.88 C222.60,91.36 223.49,93.58 227.80,96.51 C229.82,97.88 232.37,98.99 233.48,98.97 C235.98,98.94 242.50,92.98 246.50,87.07 C249.77,82.25 259.07,75.66 265.20,73.82 L 269.06 72.67 L 266.28 69.74 C264.91,68.31 263.63,67.18 262.30,66.30 C262.66,66.49 263.00,66.69 263.33,66.89 C267.98,69.77 269.25,71.48 269.55,75.28 C269.69,77.05 270.12,80.53 270.50,83.00 C272.39,95.37 260.30,109.87 244.00,114.78 C238.23,116.52 226.59,116.87 223.12,115.41 ZM 229.14 149.24 C230.13,149.93 231.15,150.58 232.19,151.19 C230.23,150.71 231.11,153.17 234.64,159.75 L 239.34 168.50 L 240.20 168.49 L 231.50 168.83 L 227.64 165.16 L 219.08 156.58 C207.91,145.38 206.89,144.07 207.93,142.13 C208.56,140.96 209.35,140.00 209.70,140.00 C210.05,140.00 210.05,140.28 209.71,140.62 C207.76,142.57 215.90,146.37 219.29,145.08 C221.06,144.41 222.48,144.82 225.54,146.89 C226.78,147.73 227.98,148.51 229.14,149.24 ZM 348.86 194.26 C349.07,185.04 348.73,175.57 348.01,171.09 C346.51,161.70 342.16,150.17 337.52,143.29 C335.58,140.42 334.00,137.66 334.00,137.15 C334.00,137.10 333.99,137.05 333.98,137.00 C334.54,137.67 335.03,138.33 335.46,138.95 C338.37,143.13 339.32,144.01 338.41,141.63 C338.12,140.87 338.59,139.56 339.44,138.70 C340.90,137.25 341.29,136.29 340.38,134.34 C342.42,137.47 344.22,140.72 345.73,144.07 C350.84,155.34 352.47,163.89 352.49,179.50 C352.50,191.92 350.97,205.16 349.12,208.68 C348.78,209.33 348.66,202.84 348.86,194.26 ZM 263.30 153.94 C264.66,153.35 266.14,152.60 268.01,151.57 C268.71,151.19 269.47,150.76 270.30,150.30 C271.81,149.45 272.64,149.41 273.11,150.18 C273.48,150.77 274.35,150.90 275.04,150.47 C275.90,149.95 276.06,150.09 275.54,150.93 C274.29,152.96 283.04,151.94 286.50,149.65 C289.01,147.99 277.53,160.56 271.75,166.05 C269.65,167.89 268.33,168.76 267.09,169.09 C265.94,169.24 264.41,169.10 262.00,168.72 C260.69,168.51 258.41,168.36 255.70,168.28 L 255.69 168.28 C255.20,168.26 254.70,168.25 254.18,168.24 C258.84,168.12 262.30,167.95 262.36,167.81 C268.05,156.09 270.04,151.71 269.80,151.47 C269.63,151.31 267.76,152.02 265.62,153.06 C263.38,154.15 260.96,154.99 258.47,155.56 C260.21,155.13 261.65,154.66 263.30,153.94 ZM 177.00 183.68 C177.00,186.70 179.17,184.61 182.12,178.75 C185.87,171.31 187.31,169.35 194.80,161.58 C198.22,158.02 199.30,156.48 197.50,157.72 C190.00,162.90 177.00,179.36 177.00,183.68 ZM 323.08 191.58 C323.92,195.65 324.81,197.67 325.78,197.67 C326.94,197.67 327.13,195.88 326.61,193.14 C327.64,197.84 328.03,202.70 327.81,207.82 L 327.50 215.14 L 326.15 212.84 C325.81,212.18 325.47,211.54 325.14,210.91 C324.34,208.88 323.99,206.08 323.99,201.85 C323.98,198.67 323.59,194.49 323.05,191.44 C323.06,191.49 323.07,191.53 323.08,191.58 ZM 300.26 162.11 C300.21,162.10 300.16,162.09 300.11,162.09 C299.31,162.10 298.53,163.91 295.58,170.39 C292.47,177.22 292.14,178.23 293.40,179.33 L 293.36 179.31 C293.19,179.21 293.02,179.10 292.85,179.00 C290.91,177.81 289.09,176.78 288.10,176.29 C284.98,174.40 282.50,172.83 282.22,172.56 C281.89,172.22 284.50,172.07 288.03,172.22 L 294.46 172.50 L 296.83 167.50 C298.75,163.45 299.36,162.11 300.04,162.08 C300.11,162.08 300.19,162.09 300.26,162.11 ZM 302.18 181.92 C301.79,181.96 301.32,181.96 300.75,181.95 C299.83,181.94 298.44,181.55 296.77,180.88 C298.01,181.07 299.00,180.79 299.00,180.00 C299.00,178.51 299.04,178.31 300.16,174.77 C302.42,167.57 302.77,164.06 301.34,162.87 C302.38,163.73 302.52,165.07 301.91,168.26 C301.01,172.88 300.85,178.26 301.66,176.24 C302.51,174.14 304.00,175.93 304.00,179.06 C304.00,179.28 304.00,179.48 303.99,179.67 C303.58,181.25 303.13,181.76 302.18,181.92 ZM 235.43 389.59 C235.87,389.24 236.02,389.00 235.98,388.80 C235.93,388.53 235.54,388.33 235.03,388.02 C234.21,387.51 231.96,388.15 228.16,389.97 C228.42,389.83 228.68,389.69 228.94,389.55 C233.38,387.15 236.05,385.96 237.44,385.83 C237.93,386.39 238.36,386.91 238.74,387.37 C238.29,387.81 237.31,388.46 235.43,389.59 ZM 323.01 126.28 C315.67,120.48 306.62,114.36 302.50,113.00 C307.47,114.64 315.76,120.21 323.01,126.28 ZM 338.00 139.62 C338.00,140.45 337.18,139.92 335.87,138.25 C334.63,136.66 334.66,136.63 336.25,137.87 C337.21,138.63 338.00,139.41 338.00,139.62 ZM 315.14 109.63 C314.78,109.40 314.43,109.19 314.09,108.98 C310.07,106.60 304.75,103.94 300.60,102.15 C300.82,102.24 301.04,102.33 301.26,102.42 C306.12,104.42 310.77,106.84 315.14,109.63 ZM 223.80 392.13 C215.22,396.20 206.41,398.51 196.06,399.42 C206.00,398.54 215.03,396.17 223.80,392.13 ZM 330.33 121.91 C325.90,117.62 320.64,113.26 316.18,110.30 C321.34,113.69 326.09,117.60 330.33,121.91 ZM 240.89 155.02 C242.29,155.49 243.66,155.86 245.00,156.12 C241.78,155.64 238.77,154.69 236.23,153.27 C237.76,153.95 239.32,154.54 240.89,155.02 ZM 314.24 167.82 C310.87,163.62 307.30,160.17 305.00,159.02 C307.66,160.35 310.99,163.61 314.24,167.82 ZM 179.12 211.58 C183.32,204.76 188.55,198.61 194.54,193.30 C188.61,198.58 183.40,204.72 179.12,211.58 ZM 216.12 179.37 C208.28,182.90 200.98,187.62 194.54,193.30 C200.98,187.58 208.27,182.88 216.12,179.37 ZM 325.50 188.93 C324.67,186.34 323.52,183.43 322.15,180.53 C322.44,181.13 322.72,181.73 322.99,182.33 C323.98,184.50 324.81,186.70 325.50,188.93 ZM 179.12 211.58 C178.25,213.01 177.42,214.46 176.64,215.94 C176.20,216.78 175.76,217.60 175.33,218.37 C176.49,216.04 177.76,213.77 179.12,211.58 ZM 316.24 173.96 C315.06,171.81 313.91,170.04 312.97,169.00 C311.71,167.62 308.84,164.53 306.59,162.13 C308.84,164.53 311.72,167.62 312.97,169.00 C313.94,170.06 315.08,171.82 316.24,173.96 ZM 184.56 399.81 C186.94,399.98 189.55,399.87 193.56,399.61 C189.56,399.87 186.94,399.98 184.56,399.81 Z" fill="rgb(140,191,120)"/>
    <path d="M 235.50 279.19 C240.86,278.50 239.87,278.33 226.16,277.63 C211.58,276.88 208.03,277.17 210.78,278.86 C211.04,279.03 211.64,279.17 212.50,279.29 C211.56,279.26 210.95,279.24 210.75,279.21 C209.25,279.03 209.00,277.88 209.00,271.17 C209.00,263.58 209.22,262.87 216.10,247.92 C220.01,239.44 223.79,230.93 224.50,229.00 C225.22,227.07 227.81,221.23 230.27,216.00 C232.73,210.77 235.69,204.35 236.83,201.71 L 238.92 196.93 L 249.20 197.21 C260.71,197.53 261.55,198.16 258.69,204.31 C247.87,227.58 241.86,240.05 237.84,247.58 C235.18,252.58 233.00,257.42 233.00,258.33 C233.00,259.79 234.40,260.00 244.00,260.00 L 255.00 260.00 L 255.08 254.25 C255.23,244.37 257.45,224.13 258.50,223.20 C259.05,222.72 262.20,221.74 265.50,221.03 C268.80,220.32 272.06,219.53 272.75,219.27 C273.72,218.89 274.00,222.69 274.00,236.27 C274.00,245.88 274.28,255.16 274.62,256.88 C275.22,259.86 275.46,260.00 280.12,260.00 L 285.00 260.00 L 285.00 279.00 L 281.25 279.02 C275.42,279.04 275.02,279.68 274.94,289.06 C274.82,302.28 274.14,305.93 271.63,306.54 C265.75,307.96 255.86,308.59 255.20,307.58 C254.82,306.98 254.27,300.42 254.00,293.00 L 253.50 279.50 L 233.00 279.46 L 232.66 279.46 C233.70,279.39 234.66,279.29 235.50,279.19 ZM 198.76 366.97 C204.66,367.96 214.13,368.12 217.12,367.38 C215.90,367.82 213.51,367.98 209.75,367.98 C204.42,368.00 203.00,368.32 203.00,369.50 C203.00,370.33 203.51,371.00 204.12,371.00 C206.30,371.00 202.80,374.00 198.27,376.00 C192.73,378.45 183.82,384.90 184.48,385.98 C184.76,386.41 184.42,387.21 183.74,387.75 C182.52,388.72 173.56,391.87 170.21,392.52 C169.27,392.70 168.27,392.93 168.00,393.03 C167.73,393.14 166.38,393.13 165.00,393.02 C162.48,392.83 162.41,393.32 164.25,394.21 C157.63,391.59 151.34,388.37 146.33,384.99 C141.67,381.84 141.41,381.79 134.67,382.64 L 127.77 383.50 L 135.13 388.62 C140.68,392.47 146.35,395.76 152.06,398.42 C146.91,396.06 141.98,393.38 138.32,390.87 C134.34,388.14 131.32,387.08 132.37,388.79 C132.64,389.23 132.05,389.65 131.06,389.72 C130.07,389.80 127.76,388.31 125.93,386.43 C122.63,383.02 122.62,383.00 125.05,382.93 C138.54,382.57 153.70,380.30 157.97,378.01 C159.68,377.10 159.71,376.69 158.41,372.36 C157.63,369.79 157.00,367.32 157.00,366.88 C157.00,366.45 160.21,365.96 164.14,365.79 L 171.29 365.50 L 172.61 360.50 C173.34,357.75 174.90,351.45 176.07,346.50 C177.25,341.55 178.80,335.48 179.52,333.00 C179.69,332.43 179.88,331.73 180.08,330.96 C179.44,334.15 179.01,336.85 179.04,338.00 C179.06,339.02 179.46,338.82 180.29,337.39 C180.95,336.23 182.29,335.40 183.26,335.55 C184.24,335.70 185.64,335.22 186.38,334.48 C188.05,332.80 190.34,333.10 192.78,335.30 C195.47,337.73 196.31,337.38 194.46,334.87 C195.34,336.05 196.00,337.13 196.00,337.42 C196.00,338.34 198.49,341.92 202.25,346.69 L 203.05 347.81 L 196.27 350.31 C192.55,351.69 188.26,353.09 186.75,353.43 C181.25,354.65 183.40,356.75 194.00,360.53 C197.04,361.62 200.94,362.03 206.00,361.82 C212.76,361.54 213.77,361.74 216.26,363.94 C216.89,364.50 217.37,364.99 217.69,365.41 C216.06,364.92 212.48,364.73 207.05,364.86 C198.20,365.08 191.07,363.87 181.50,360.56 C180.17,360.10 180.34,360.38 182.00,361.39 C185.37,363.46 192.99,365.99 198.76,366.97 ZM 86.00 376.07 C80.13,374.73 77.37,373.28 74.11,369.82 C70.19,365.65 68.37,361.27 68.13,355.08 L 72.62 359.60 C75.62,362.61 79.04,364.95 81.50,365.68 C87.59,367.47 98.72,366.72 103.69,364.17 C112.63,359.58 117.53,348.15 116.41,334.50 C116.05,330.10 115.34,325.41 114.84,324.08 C114.04,321.97 114.54,321.01 118.71,316.70 L 123.50 311.75 L 115.38 312.39 C108.95,312.89 107.02,312.73 106.07,311.58 C105.04,310.35 104.22,310.33 100.44,311.47 C97.49,312.36 94.58,313.66 91.80,315.28 C92.19,315.04 92.59,314.80 93.00,314.56 C100.86,309.96 106.95,308.04 114.19,307.87 C121.50,307.70 123.87,308.60 124.64,311.82 C124.99,313.29 125.62,314.95 126.05,315.50 C128.91,319.22 129.78,338.63 127.56,349.14 C125.74,357.70 123.21,362.51 117.83,367.60 C110.84,374.22 95.63,378.27 86.00,376.07 ZM 128.23 282.51 C125.33,281.63 122.56,281.16 122.07,281.45 C122.56,281.16 125.30,281.61 128.16,282.45 C131.02,283.30 133.84,284.00 134.43,283.99 C135.04,283.99 135.62,281.40 135.79,278.01 C135.90,275.71 136.33,273.00 137.01,270.16 C137.10,271.81 138.57,270.85 141.00,267.51 C142.59,265.32 145.11,263.51 147.93,262.54 C150.36,261.69 152.48,261.00 152.63,261.00 C152.78,261.00 155.21,265.57 158.03,271.15 C161.15,277.33 163.09,280.80 164.52,282.53 C163.24,281.19 161.86,279.08 160.99,276.97 C160.31,275.34 159.34,274.00 158.82,274.00 C158.30,274.00 158.13,273.60 158.44,273.10 C158.74,272.61 158.26,271.93 157.37,271.59 C155.89,271.02 155.89,271.19 157.40,273.49 C158.71,275.49 158.82,276.46 157.93,278.13 C157.13,279.62 157.12,280.04 157.90,279.56 C158.51,279.19 159.00,279.12 159.00,279.41 C159.00,279.70 156.44,281.58 153.31,283.58 L 153.05 283.74 C150.40,285.44 148.85,286.43 148.92,287.30 C148.99,288.23 150.89,289.02 155.25,290.41 C146.37,287.89 135.70,284.79 128.23,282.51 ZM 154.85 361.33 C153.39,360.94 153.47,360.41 155.57,356.66 C159.02,350.48 160.81,343.01 160.85,335.81 C161.10,339.84 161.59,343.54 162.01,344.50 C163.69,348.29 166.00,356.07 166.00,357.95 C166.00,358.99 165.44,360.06 164.75,360.34 C164.06,360.62 164.50,360.88 165.71,360.92 C167.45,360.98 168.13,360.20 168.91,357.25 C169.19,356.19 170.11,352.55 171.37,347.59 C169.36,355.65 168.00,361.24 168.00,361.44 C168.00,362.08 157.33,361.99 154.85,361.33 ZM 138.48 302.32 C139.48,302.83 140.45,303.35 141.38,303.87 C135.70,300.93 129.13,299.15 122.19,298.81 C119.81,298.70 117.65,298.24 117.38,297.80 C116.77,296.82 120.11,291.00 121.27,291.00 C121.74,291.00 121.88,290.61 121.58,290.13 C121.29,289.66 121.82,288.57 122.77,287.72 C123.16,287.37 123.62,287.13 124.33,287.02 C123.71,287.14 123.32,287.38 123.00,287.72 C121.66,289.12 121.69,289.22 123.25,288.67 C124.21,288.34 125.00,288.50 125.00,289.03 C125.00,289.56 125.48,290.00 126.06,290.00 C126.64,290.00 126.80,289.44 126.41,288.75 C126.02,288.06 126.61,288.43 127.72,289.56 C130.37,292.28 131.80,295.13 131.48,297.07 C131.31,298.13 133.61,299.85 138.48,302.32 ZM 235.43 389.59 C233.59,390.70 230.89,392.26 227.00,394.53 C223.80,396.39 220.91,397.96 218.17,399.27 C221.13,397.80 222.94,396.34 223.28,395.04 C223.74,393.28 223.52,392.97 222.18,393.49 C219.13,394.67 215.34,395.80 211.33,396.76 C215.63,395.59 219.74,394.05 223.80,392.13 C225.26,391.46 226.71,390.74 228.16,389.97 C231.96,388.15 234.21,387.51 235.03,388.02 C235.54,388.33 235.93,388.53 235.98,388.80 C236.02,389.00 235.87,389.24 235.43,389.59 ZM 104.40 298.23 C102.43,296.92 102.34,294.66 104.19,292.81 C105.95,291.05 106.11,291.09 109.00,293.85 C110.65,295.43 112.00,297.23 112.00,297.86 C112.00,299.11 106.15,299.40 104.40,298.23 ZM 149.41 373.85 C147.90,371.41 148.17,368.15 150.03,366.47 C151.81,364.86 151.93,364.90 152.46,367.14 C153.67,372.32 153.50,374.42 151.84,374.76 C150.93,374.95 149.84,374.54 149.41,373.85 ZM 165.23 403.45 C169.09,404.59 173.64,405.36 178.42,405.75 C173.05,405.65 170.42,405.07 165.23,403.50 C163.35,402.94 161.37,402.25 159.35,401.48 C161.31,402.21 163.27,402.87 165.23,403.45 ZM 82.76 322.09 C78.03,326.54 74.09,331.87 71.51,337.43 C73.99,331.84 77.80,326.64 82.76,322.09 ZM 184.04 315.19 C183.53,316.58 182.83,319.06 182.12,321.91 C182.84,318.24 183.32,316.08 184.04,315.19 ZM 150.29 310.13 C154.57,313.98 157.40,318.32 159.04,323.50 C158.58,322.12 158.04,320.80 157.41,319.55 C155.65,316.04 153.23,312.87 150.29,310.13 ZM 204.35 404.04 C204.40,404.03 204.45,404.01 204.50,404.00 C209.20,402.80 213.23,401.46 216.34,400.11 C212.28,401.93 208.47,403.19 204.35,404.04 ZM 170.93 294.69 C171.10,294.65 171.22,294.57 171.29,294.47 C171.61,294.04 171.19,293.06 170.51,291.50 C170.48,291.41 170.44,291.33 170.40,291.25 C169.97,290.26 169.53,289.17 169.15,288.20 C170.51,291.09 171.83,294.46 171.53,294.79 C171.51,294.81 171.30,294.77 170.93,294.69 ZM 140.35 259.67 C141.57,256.66 142.93,253.88 144.34,251.68 C143.13,253.60 141.66,256.61 140.35,259.67 ZM 189.95 318.36 C188.98,317.45 188.03,316.60 187.22,315.90 C187.94,316.49 188.80,317.28 189.84,318.25 C189.88,318.29 189.92,318.32 189.95,318.36 ZM 193.41 324.08 C192.66,324.70 192.23,325.84 192.09,327.18 L 192.09 327.21 C192.21,325.86 192.64,324.71 193.41,324.08 Z" fill="rgb(210,154,57)"/>
    <path d="M 182.37 303.47 C182.05,303.02 181.75,302.59 181.46,302.19 C176.44,294.62 172.21,285.75 169.77,277.30 C169.55,276.56 169.35,275.77 169.17,274.94 C169.11,274.62 169.05,274.28 168.99,273.92 C169.23,274.75 169.51,275.59 169.85,276.50 C171.21,280.22 171.86,281.26 171.55,279.25 C171.28,277.46 171.49,275.94 172.02,275.88 C172.56,275.81 173.45,275.64 174.00,275.50 C174.55,275.36 182.43,275.19 191.50,275.12 L 208.00 275.00 L 208.00 269.20 C208.00,266.01 208.43,262.97 208.95,262.45 C209.43,261.96 212.56,255.53 215.90,248.35 C209.21,262.88 209.00,263.65 209.00,271.17 C209.00,277.88 209.25,279.03 210.75,279.21 C210.95,279.24 211.56,279.26 212.50,279.29 C216.52,279.86 226.16,279.95 232.66,279.46 L 233.00 279.46 L 253.50 279.50 L 254.00 293.00 C254.27,300.42 254.82,306.98 255.20,307.58 C255.86,308.59 265.75,307.96 271.63,306.54 C274.14,305.93 274.82,302.28 274.94,289.06 C275.02,279.68 275.42,279.04 281.25,279.02 L 285.00 279.00 L 285.00 260.00 L 280.12 260.00 C275.46,260.00 275.22,259.86 274.62,256.88 C274.28,255.16 274.00,245.88 274.00,236.27 C274.00,222.69 273.72,218.89 272.75,219.27 C272.06,219.53 268.80,220.32 265.50,221.03 C262.21,221.74 259.07,222.71 258.50,223.20 C260.09,219.95 263.02,219.25 269.00,218.86 L 274.50 218.50 L 275.00 237.00 C275.27,247.18 275.89,256.11 276.38,256.86 C276.95,257.75 278.37,258.04 280.52,257.69 C283.06,257.28 284.21,257.65 285.73,259.40 C286.80,260.63 287.58,262.28 287.48,263.07 C286.19,272.55 286.03,277.00 286.97,277.00 C287.55,277.00 287.93,278.32 287.81,279.93 C287.69,281.54 287.34,282.84 287.04,282.81 C285.21,282.65 284.00,283.14 284.00,284.06 C284.00,284.64 284.45,284.84 285.00,284.50 C285.55,284.16 286.00,284.86 286.00,286.06 C286.00,287.71 286.46,288.11 287.93,287.73 C289.38,287.35 289.71,287.63 289.28,288.86 C288.81,290.19 288.96,290.27 290.05,289.25 C290.79,288.56 293.74,288.00 296.60,288.00 C300.89,288.00 302.71,288.62 307.04,291.53 C309.92,293.47 312.51,294.82 312.80,294.54 C313.08,294.25 313.87,294.47 314.54,295.03 C315.41,295.75 315.94,295.59 316.37,294.47 C316.72,293.56 316.56,293.15 315.99,293.51 C315.44,293.84 315.00,293.67 315.00,293.12 C315.00,292.57 315.43,291.85 315.96,291.53 C316.48,291.20 316.67,290.31 316.38,289.54 C316.00,288.56 316.41,288.30 317.77,288.65 C319.95,289.22 319.75,293.13 317.45,295.04 C316.72,295.65 316.35,296.74 316.63,297.47 C316.91,298.20 316.66,299.09 316.08,299.45 C315.43,299.86 315.23,299.42 315.58,298.30 C315.88,297.31 315.40,297.75 314.52,299.27 C313.63,300.80 313.16,302.46 313.47,302.95 C313.78,303.45 313.51,304.19 312.86,304.59 C312.08,305.07 311.96,304.87 312.50,304.00 C313.02,303.15 312.92,302.93 312.20,303.38 C311.59,303.76 311.32,304.68 311.61,305.43 C311.91,306.22 310.63,307.94 308.58,309.51 C306.62,311.00 305.31,312.69 305.66,313.27 C306.04,313.88 305.83,314.01 305.14,313.59 C304.50,313.19 302.75,313.87 301.24,315.09 C299.18,316.76 299.00,317.15 300.50,316.65 C302.24,316.08 302.20,316.25 300.15,317.99 C298.85,319.09 297.39,319.74 296.90,319.44 C296.40,319.13 296.00,319.61 296.00,320.50 C296.00,321.39 295.55,321.84 295.00,321.50 C294.45,321.16 294.00,321.34 294.00,321.91 C294.00,322.47 293.25,322.65 292.34,322.30 C291.12,321.83 290.89,322.02 291.50,323.00 C292.10,323.98 291.88,324.17 290.68,323.71 C289.68,323.32 289.12,323.54 289.26,324.24 C289.39,324.88 288.83,325.43 288.00,325.45 C287.17,325.48 284.92,326.69 283.00,328.15 C277.44,332.35 262.53,335.81 249.50,335.91 C239.37,335.99 223.47,332.97 217.89,329.91 C216.58,329.19 214.92,328.50 214.20,328.38 C213.49,328.26 211.46,327.07 209.70,325.74 C207.94,324.40 205.38,322.73 204.00,322.01 L 201.50 320.71 L 203.50 322.96 C204.11,323.65 205.17,324.47 206.56,325.37 C202.15,322.75 198.02,319.91 194.52,317.02 L 194.51 317.01 C193.74,316.16 192.87,315.42 192.33,315.13 C191.83,314.68 191.35,314.23 190.89,313.79 C188.29,311.26 185.74,308.23 183.33,304.89 C183.03,304.43 182.71,303.95 182.37,303.47 ZM 257.39 64.23 C259.20,64.84 260.87,65.54 262.30,66.30 C263.63,67.18 264.91,68.31 266.28,69.74 L 269.06 72.67 L 265.20 73.82 C259.07,75.66 249.77,82.25 246.50,87.07 C242.50,92.98 235.98,98.94 233.48,98.97 C232.37,98.99 229.82,97.88 227.80,96.51 C223.49,93.58 222.60,91.36 223.52,85.88 C224.44,80.45 232.18,70.38 238.38,66.56 C242.62,63.95 244.18,63.56 250.38,63.59 C253.18,63.60 255.44,63.78 257.39,64.23 ZM 362.89 339.56 C362.64,339.31 360.54,338.99 358.22,338.86 C354.15,338.62 354.00,338.49 354.00,335.27 C354.00,327.38 360.22,319.18 368.60,316.05 C375.33,313.53 386.34,313.33 394.07,315.59 C402.17,317.95 402.92,319.06 399.66,323.77 C395.92,329.17 391.92,331.85 385.77,333.09 C375.32,335.20 367.46,337.35 365.42,338.67 C364.28,339.40 363.14,339.80 362.89,339.56 ZM 206.01 103.60 C205.36,104.85 204.71,106.15 204.08,107.48 C201.96,111.44 200.61,112.42 194.75,115.48 C184.81,120.67 180.14,124.01 173.32,130.77 C163.16,140.86 157.26,151.04 153.08,165.71 C152.01,169.45 151.10,171.82 151.06,171.00 C150.98,169.67 150.86,169.67 150.00,171.00 C149.30,172.09 149.03,171.24 149.02,167.91 C148.98,156.62 155.56,139.61 164.42,128.12 C170.34,120.43 188.66,105.00 191.85,105.00 C192.33,105.00 196.01,103.65 200.02,101.99 C204.03,100.34 207.47,99.14 207.66,99.33 C207.81,99.47 207.11,101.25 206.01,103.60 ZM 114.40 312.46 C114.24,312.54 114.36,312.63 114.79,312.71 C117.90,313.31 116.91,316.26 112.22,320.37 C107.68,324.35 100.77,331.69 99.59,333.79 C97.57,337.35 91.15,342.83 84.87,346.33 C75.03,351.83 73.09,350.18 77.03,339.64 C80.58,330.17 90.94,320.78 103.21,315.94 C107.22,314.36 109.77,313.05 108.87,313.03 C108.02,313.02 106.83,312.42 106.16,311.68 C107.08,312.68 108.93,312.86 114.40,312.46 ZM 85.42 311.25 C86.29,309.38 86.62,308.12 86.14,308.41 C85.66,308.71 84.98,307.28 84.64,305.23 C83.62,299.09 83.92,275.04 85.07,270.62 C88.85,255.99 94.10,245.99 102.50,237.39 C110.75,228.94 115.31,229.51 107.44,238.00 C103.02,242.76 96.81,256.26 94.33,266.49 C92.45,274.27 91.95,278.87 92.07,287.24 C92.16,293.16 92.51,298.00 92.85,298.00 C93.15,298.00 95.48,295.73 98.30,292.71 C92.89,298.91 88.19,305.55 85.82,310.43 C85.68,310.71 85.55,310.99 85.42,311.25 ZM 184.56 399.81 C186.94,399.98 189.56,399.87 193.56,399.61 L 193.71 399.60 C194.49,399.55 195.27,399.49 196.04,399.42 C193.12,399.90 191.00,400.72 191.00,401.56 C191.00,402.27 190.29,403.56 189.43,404.43 C188.83,405.02 188.53,405.39 188.67,405.63 C188.29,405.64 187.90,405.65 187.51,405.66 L 187.50 405.66 C183.65,405.75 180.77,405.80 178.42,405.75 C173.64,405.36 169.09,404.59 165.23,403.45 C163.27,402.87 161.31,402.21 159.35,401.48 C156.94,400.57 154.48,399.53 152.06,398.42 C146.35,395.76 140.68,392.47 135.13,388.62 L 127.77 383.50 L 134.67 382.64 C141.41,381.79 141.67,381.84 146.33,384.99 C151.34,388.37 157.63,391.59 164.25,394.21 C165.97,395.05 169.36,396.24 173.97,397.56 C178.79,398.94 181.48,399.60 184.56,399.81 ZM 315.14 109.63 C315.49,109.85 315.83,110.07 316.18,110.30 L 316.18 110.30 C320.64,113.26 325.90,117.62 330.33,121.91 C334.12,125.75 337.49,129.92 340.38,134.34 C341.29,136.29 340.90,137.25 339.44,138.70 C338.59,139.56 338.12,140.87 338.41,141.63 C339.32,144.01 338.37,143.13 335.46,138.95 C335.03,138.33 334.54,137.67 333.98,137.00 C333.67,135.36 328.89,130.93 323.01,126.28 C315.76,120.21 307.47,114.64 302.50,113.00 C299.95,112.16 298.76,111.02 296.84,107.22 L 295.88 104.82 C295.65,104.24 295.34,103.66 294.99,103.16 C294.28,101.29 294.02,100.01 294.43,100.02 C294.98,100.04 297.68,100.97 300.60,102.15 C304.75,103.94 310.07,106.60 314.09,108.98 C314.43,109.19 314.78,109.40 315.14,109.63 ZM 282.50 366.98 C268.91,364.51 250.75,355.09 242.14,346.03 C238.84,342.57 238.82,342.49 241.08,342.16 C242.35,341.97 243.86,342.42 244.44,343.17 C246.09,345.29 260.39,354.66 267.28,358.14 C270.70,359.87 276.42,362.12 280.00,363.14 C288.17,365.48 302.55,365.62 309.92,363.43 C312.82,362.57 315.42,362.09 315.70,362.36 C315.97,362.64 313.21,363.78 309.56,364.91 C301.74,367.32 289.53,368.26 282.50,366.98 ZM 369.66 385.55 L 366.26 387.97 C364.85,388.83 363.57,389.44 362.95,389.48 C362.02,389.55 360.47,390.38 359.53,391.33 C358.58,392.27 356.39,393.73 354.66,394.57 C352.15,395.78 351.87,395.80 353.29,394.66 C354.92,393.35 354.80,393.25 351.83,393.48 C347.93,393.79 344.68,391.32 347.16,389.93 C348.00,389.46 351.04,387.49 353.92,385.55 C359.02,382.12 359.33,382.05 365.76,382.76 L 370.89 383.34 L 372.34 383.51 ZM 323.08 191.58 C323.07,191.53 323.06,191.49 323.05,191.44 C322.90,190.60 322.74,189.85 322.57,189.23 C321.36,184.66 318.73,178.47 316.24,173.96 C315.08,171.82 313.94,170.06 312.97,169.00 C311.72,167.62 308.84,164.53 306.59,162.13 C303.35,158.67 303.02,158.02 305.00,159.02 C307.66,160.35 310.99,163.61 314.24,167.82 C317.12,171.55 319.93,176.01 322.15,180.53 L 322.15 180.53 C323.52,183.43 324.67,186.34 325.50,188.93 C325.93,190.32 326.29,191.72 326.61,193.14 C327.13,195.88 326.94,197.67 325.78,197.67 C324.81,197.67 323.92,195.65 323.08,191.58 ZM 300.26 162.11 C300.53,162.19 300.83,162.44 301.24,162.78 C301.27,162.81 301.31,162.84 301.34,162.87 C302.77,164.06 302.42,167.57 300.16,174.77 C299.04,178.31 299.00,178.51 299.00,180.00 C299.00,180.79 298.01,181.07 296.77,180.88 C295.74,180.47 294.60,179.94 293.40,179.33 C292.14,178.23 292.47,177.22 295.58,170.39 C298.53,163.91 299.31,162.10 300.11,162.09 C300.16,162.09 300.21,162.10 300.26,162.11 ZM 414.50 308.73 L 413.90 307.80 C413.65,307.22 412.95,306.15 412.03,304.93 L 411.50 304.11 C408.72,299.83 407.29,295.44 409.03,296.52 C409.45,296.78 410.08,295.84 410.43,294.43 C410.91,292.50 411.62,291.95 413.29,292.19 C415.14,292.45 415.55,293.22 415.79,297.00 C415.95,299.48 415.73,303.13 415.29,305.11 ZM 148.50 239.49 C146.85,241.15 143.82,244.53 141.77,247.00 C137.74,251.86 137.06,251.76 139.62,246.70 C143.79,238.50 156.11,227.23 157.36,230.48 C157.69,231.37 156.67,232.81 154.70,234.20 C152.94,235.45 150.15,237.83 148.50,239.49 ZM 255.66 243.73 C255.34,247.63 255.12,251.38 255.08,254.25 L 255.00 260.00 L 244.00 260.00 C234.40,260.00 233.00,259.79 233.00,258.33 C233.00,257.42 235.18,252.58 237.84,247.58 C240.79,242.05 244.82,233.86 251.03,220.68 L 250.18 222.50 C235.88,253.02 234.05,257.41 235.31,258.21 C235.96,258.63 239.74,258.98 243.69,258.98 C250.00,259.00 251.08,258.73 252.44,256.78 C253.30,255.56 254.00,252.88 254.00,250.84 C254.00,248.79 254.41,246.86 254.92,246.55 C255.14,246.42 255.40,245.37 255.66,243.73 ZM 177.00 183.68 C177.00,179.36 190.00,162.90 197.50,157.72 C199.30,156.48 198.22,158.02 194.80,161.58 C187.31,169.35 185.87,171.31 182.12,178.75 C179.17,184.61 177.00,186.70 177.00,183.68 ZM 366.98 265.28 C365.31,259.13 360.85,250.17 357.46,246.13 C355.86,244.23 355.04,242.33 355.41,241.37 C355.93,240.01 356.31,240.13 357.88,242.13 C362.52,248.06 370.37,267.96 368.72,269.62 C368.47,269.86 367.69,267.91 366.98,265.28 ZM 198.76 366.97 C192.99,365.99 185.37,363.46 182.00,361.39 C180.34,360.38 180.17,360.10 181.50,360.56 C181.87,360.68 182.23,360.81 182.59,360.93 C182.22,360.81 181.86,360.68 181.50,360.56 C180.40,360.18 180.85,360.66 182.50,361.61 C184.15,362.57 187.98,364.12 191.00,365.06 C195.08,366.33 198.56,366.64 204.50,366.25 C208.90,365.97 212.69,365.57 212.92,365.37 C213.15,365.16 209.74,365.00 205.35,365.00 C203.43,365.00 201.37,364.88 199.23,364.63 C201.75,364.86 204.32,364.93 207.05,364.86 C212.48,364.73 216.06,364.92 217.69,365.41 C218.39,366.36 218.25,366.98 217.12,367.38 C214.13,368.12 204.66,367.96 198.76,366.97 ZM 236.56 163.00 L 237.73 165.50 L 234.64 159.75 C231.11,153.17 230.23,150.71 232.19,151.19 C233.51,151.96 234.86,152.65 236.23,153.27 C237.25,153.84 238.35,154.33 239.51,154.75 C234.40,153.50 234.37,153.72 234.19,155.48 C234.08,156.59 235.15,159.98 236.56,163.00 ZM 257.27 155.84 C257.68,155.74 258.08,155.65 258.47,155.56 C260.96,154.99 263.38,154.15 265.62,153.06 C267.76,152.02 269.63,151.31 269.80,151.47 C270.00,151.67 268.60,154.86 264.69,162.99 C267.35,156.71 267.04,153.48 263.65,154.41 C259.95,155.42 256.99,156.07 254.33,156.38 C255.00,156.29 255.66,156.17 256.33,156.03 C256.66,155.97 256.97,155.90 257.27,155.84 ZM 161.05 338.43 C160.98,337.59 160.91,336.71 160.85,335.81 C160.88,331.50 160.28,327.28 159.04,323.50 C158.91,323.10 158.77,322.70 158.63,322.30 C159.56,324.42 160.23,326.49 160.56,328.33 C161.18,331.76 161.50,332.09 163.67,331.55 C166.04,330.95 166.06,330.98 164.43,333.47 C163.52,334.86 162.37,336.00 161.88,336.00 C161.41,336.00 161.14,337.04 161.05,338.43 ZM 150.29 310.13 C147.69,307.69 144.68,305.59 141.38,303.87 C140.79,303.54 140.18,303.21 139.56,302.88 C141.44,303.78 142.62,304.20 142.41,303.86 C142.12,303.39 143.24,303.00 144.91,303.00 C147.25,303.00 147.80,303.36 147.33,304.57 C146.94,305.59 148.17,307.64 150.76,310.32 C151.40,310.98 152.03,311.70 152.64,312.45 C151.91,311.66 151.13,310.88 150.29,310.13 ZM 323.77 278.80 C323.97,279.42 323.67,280.73 323.10,281.71 C322.13,283.38 322.06,283.37 322.02,281.50 C321.98,279.84 321.80,279.75 321.00,281.00 C320.24,282.18 320.03,281.92 320.02,279.84 C320.00,277.90 320.46,277.24 321.70,277.43 C322.63,277.56 323.56,278.18 323.77,278.80 ZM 352.12 308.52 C354.33,306.38 355.75,304.38 355.32,303.98 C354.79,303.48 342.94,302.13 334.27,301.43 C336.63,301.60 339.52,301.84 343.11,302.14 C343.87,302.20 344.67,302.27 345.50,302.34 L 359.50 303.50 L 355.82 305.79 C354.52,306.60 353.29,307.51 352.12,308.52 ZM 171.43 299.91 C171.67,299.67 165.68,297.73 157.48,295.29 C157.97,295.43 158.47,295.58 158.97,295.73 C168.98,298.66 172.93,299.84 175.16,301.27 L 169.31 301.56 C163.84,301.84 163.33,301.76 166.73,301.14 C169.06,300.72 171.17,300.16 171.43,299.91 ZM 0.00 0.00 L 346.84 0.00 L 0.00 0.04 ZM 202.68 329.92 C202.88,329.72 203.47,329.75 204.38,330.00 C204.47,330.14 204.56,330.30 204.63,330.48 C205.47,332.68 204.55,333.36 203.09,331.61 C203.03,331.54 202.98,331.47 202.93,331.40 C202.58,330.63 202.49,330.11 202.68,329.92 ZM 167.66 245.93 C167.57,248.46 167.55,251.53 167.57,255.50 C167.59,259.78 167.64,262.97 167.77,265.51 C167.21,259.27 167.18,252.30 167.66,245.93 ZM 338.00 139.62 C338.00,139.41 337.21,138.63 336.25,137.87 C334.66,136.63 334.63,136.66 335.87,138.25 C337.18,139.92 338.00,140.45 338.00,139.62 ZM 210.16 402.39 C216.98,400.09 222.73,397.15 223.28,395.04 C222.94,396.34 221.13,397.80 218.17,399.27 C217.56,399.56 216.95,399.84 216.34,400.11 C214.57,400.88 212.49,401.65 210.16,402.39 ZM 213.79 329.33 C218.47,331.60 223.93,333.85 228.65,335.39 C227.48,335.06 226.28,334.68 225.03,334.25 C221.37,332.90 217.55,331.23 213.79,329.33 ZM 258.17 223.98 C257.71,225.58 257.15,229.36 256.62,233.88 C256.94,229.30 257.34,226.16 258.17,223.98 ZM 199.55 399.06 C203.68,398.55 207.57,397.79 211.33,396.76 C211.59,396.70 211.86,396.64 212.12,396.57 C207.24,397.88 202.41,399.01 201.14,399.01 C200.60,399.01 200.07,399.03 199.55,399.06 ZM 123.26 312.00 L 118.93 312.11 L 123.50 311.75 ZM 133.00 288.40 C132.58,288.29 132.18,288.19 131.80,288.09 C135.54,288.99 140.92,290.49 148.82,292.77 C143.60,291.28 138.09,289.75 133.00,288.40 ZM 319.74 308.55 C319.79,307.93 320.07,307.24 320.60,306.34 C320.12,307.34 319.84,308.34 319.87,309.18 C319.82,308.97 319.77,308.76 319.74,308.55 ZM 179.44 306.24 L 181.15 308.67 L 181.12 308.78 ZM 163.77 349.18 C164.92,352.55 166.00,356.56 166.00,357.95 C166.00,356.69 164.96,352.76 163.77,349.18 ZM 179.12 211.58 C183.40,204.72 188.61,198.58 194.54,193.30 L 194.55 193.30 C196.44,191.62 198.42,190.02 200.46,188.51 C198.57,189.91 196.73,191.38 194.96,192.94 C188.73,198.40 183.28,204.82 178.86,212.02 C178.94,211.88 179.03,211.73 179.12,211.58 ZM 340.26 329.04 C340.26,329.08 340.25,329.12 340.24,329.16 C340.17,329.42 340.11,329.68 340.04,329.95 L 338.40 336.39 L 340.05 329.86 C340.12,329.58 340.19,329.31 340.26,329.04 ZM 103.95 286.56 L 105.84 284.50 L 105.86 284.52 ZM 224.23 229.68 C224.33,229.43 224.42,229.20 224.50,229.00 C225.21,227.07 227.81,221.23 230.27,216.00 C227.81,221.23 225.22,227.07 224.50,229.00 C224.44,229.17 224.35,229.40 224.23,229.68 ZM 132.48 298.68 C131.75,298.03 131.42,297.50 131.48,297.07 C131.44,297.49 131.78,298.04 132.48,298.68 ZM 81.60 312.25 C81.87,313.58 82.17,314.40 82.53,314.71 C82.16,314.43 81.87,313.60 81.60,312.25 ZM 131.49 297.01 C131.65,295.91 131.26,294.54 130.42,293.06 C131.27,294.54 131.66,295.93 131.49,297.01 ZM 261.41 167.95 C260.07,168.05 257.41,168.16 254.18,168.24 L 254.14 168.24 C257.39,168.16 260.06,168.05 261.41,167.95 ZM 175.35 218.33 C174.67,219.69 174.02,221.08 173.41,222.49 C174.02,221.09 174.66,219.72 175.33,218.37 ZM 239.34 168.50 L 240.34 168.48 L 240.20 168.49 L 239.34 168.50 Z" fill="rgb(218,228,213)"/>
    <path d="M 85.42 311.25 C84.01,314.06 83.15,315.16 82.53,314.71 C82.17,314.40 81.87,313.58 81.60,312.25 C77.33,291.28 78.48,272.91 85.11,256.21 C94.97,231.41 116.99,213.15 151.32,201.34 C161.75,197.76 183.21,192.70 185.86,193.21 C187.02,193.43 186.66,194.33 184.36,197.00 C183.01,198.57 181.64,200.33 180.29,202.23 C179.78,202.91 179.29,203.59 178.83,204.28 C176.15,208.20 173.95,212.02 172.40,215.29 C170.13,219.69 168.10,224.28 166.50,228.73 C165.15,232.49 163.89,234.16 161.59,235.26 C156.86,237.52 148.04,245.90 144.39,251.61 L 144.37 251.64 L 144.35 251.66 L 144.34 251.68 C143.13,253.60 141.66,256.61 140.35,259.67 C138.51,263.99 137.00,268.40 137.00,269.97 C137.00,270.03 137.00,270.10 137.01,270.16 C136.33,273.00 135.90,275.71 135.79,278.01 C135.62,281.40 135.04,283.99 134.43,283.99 C133.84,284.00 131.02,283.30 128.16,282.45 C125.32,281.61 122.61,281.16 122.09,281.45 C122.08,281.45 122.08,281.45 122.07,281.45 L 122.07 281.45 C121.59,281.75 119.76,284.53 118.01,287.63 L 114.84 293.26 L 110.36 288.88 L 105.87 284.50 L 105.86 284.52 L 105.84 284.50 L 103.95 286.56 L 100.94 289.79 C100.05,290.75 99.17,291.72 98.30,292.71 C95.48,295.73 93.15,298.00 92.85,298.00 C92.51,298.00 92.16,293.16 92.07,287.24 C91.95,278.87 92.45,274.27 94.33,266.49 C96.81,256.26 103.02,242.76 107.44,238.00 C115.31,229.51 110.75,228.94 102.50,237.39 C94.10,245.99 88.85,255.99 85.07,270.62 C83.92,275.04 83.62,299.09 84.64,305.23 C84.98,307.28 85.66,308.71 86.14,308.41 C86.62,308.12 86.29,309.38 85.42,311.25 ZM 114.40 312.46 C114.72,312.44 115.04,312.42 115.38,312.39 L 118.93 312.11 L 123.26 312.00 L 118.71 316.70 C114.54,321.01 114.04,321.97 114.84,324.08 C115.34,325.41 116.05,330.10 116.41,334.50 C117.53,348.15 112.63,359.58 103.69,364.17 C98.72,366.72 87.59,367.47 81.50,365.68 C79.04,364.95 75.62,362.61 72.62,359.60 L 68.13 355.08 C68.08,353.70 68.11,352.23 68.21,350.65 C68.50,346.10 69.63,341.65 71.51,337.43 C74.09,331.87 78.03,326.54 82.76,322.09 C85.44,319.62 88.47,317.33 91.80,315.28 C94.58,313.66 97.49,312.36 100.44,311.47 C104.22,310.33 105.04,310.35 106.07,311.58 C106.10,311.61 106.12,311.65 106.16,311.68 L 106.16 311.68 C106.83,312.42 108.02,313.02 108.87,313.03 C109.77,313.05 107.22,314.36 103.21,315.94 C90.94,320.78 80.58,330.17 77.03,339.64 C73.09,350.18 75.03,351.83 84.87,346.33 C91.15,342.83 97.57,337.35 99.59,333.79 C100.77,331.69 107.68,324.35 112.22,320.37 C116.91,316.26 117.90,313.31 114.79,312.71 C114.36,312.63 114.24,312.54 114.40,312.46 ZM 138.48 302.32 C135.57,300.85 133.58,299.64 132.48,298.68 C131.78,298.04 131.44,297.49 131.48,297.07 L 131.49 297.06 C131.51,296.91 131.52,296.80 131.52,296.70 C131.57,295.66 131.18,294.40 130.42,293.06 L 130.42 293.06 C129.77,291.93 128.86,290.73 127.72,289.56 C126.61,288.43 126.02,288.06 126.41,288.75 C126.80,289.44 126.64,290.00 126.06,290.00 C125.48,290.00 125.00,289.56 125.00,289.03 C125.00,288.50 124.21,288.34 123.25,288.67 C121.79,289.18 121.67,289.13 122.76,287.97 L 122.77 287.96 C122.84,287.89 122.92,287.80 123.00,287.72 C123.01,287.71 123.02,287.70 123.03,287.68 C123.35,287.37 123.73,287.13 124.33,287.02 C125.61,286.83 127.72,287.11 131.80,288.09 C132.18,288.19 132.58,288.29 133.00,288.40 C138.09,289.75 143.60,291.28 148.82,292.77 C151.42,293.52 154.30,294.36 157.48,295.29 C165.68,297.73 171.67,299.67 171.43,299.91 C171.17,300.16 169.06,300.72 166.73,301.14 C163.33,301.76 163.84,301.84 169.31,301.56 L 175.16 301.27 C175.42,301.44 175.66,301.61 175.88,301.79 C174.86,301.25 173.53,301.34 170.78,301.56 C167.88,301.79 161.53,302.25 156.68,302.58 C150.26,303.03 147.37,303.59 147.28,305.22 C147.25,304.97 147.26,304.76 147.33,304.57 C147.80,303.36 147.25,303.00 144.91,303.00 C143.24,303.00 142.12,303.39 142.41,303.86 C142.62,304.20 141.44,303.78 139.56,302.88 C139.20,302.70 138.84,302.51 138.48,302.32 ZM 161.05 338.43 C161.14,337.04 161.41,336.00 161.88,336.00 C162.37,336.00 163.52,334.86 164.43,333.47 C165.84,331.32 166.02,331.00 164.50,331.34 C166.54,330.02 169.44,326.47 173.54,320.48 C176.82,315.70 179.92,311.20 180.44,310.48 C181.03,309.67 180.63,308.21 179.19,305.89 L 179.44 306.24 L 181.12 308.78 L 174.57 334.78 C173.41,339.40 172.32,343.77 171.37,347.59 C170.11,352.55 169.19,356.19 168.91,357.25 C168.13,360.20 167.45,360.98 165.71,360.92 C164.50,360.88 164.06,360.62 164.75,360.34 C165.44,360.06 166.00,358.99 166.00,357.95 C166.00,356.69 164.96,352.76 163.77,349.18 C163.18,347.42 162.56,345.74 162.01,344.50 C161.68,343.76 161.32,341.36 161.05,338.43 ZM 184.04 315.19 C184.74,314.32 185.66,314.64 187.22,315.90 C188.03,316.60 188.98,317.45 189.95,318.36 L 189.95 318.36 C193.97,322.12 194.56,323.12 193.41,324.08 C193.40,324.08 193.39,324.09 193.38,324.10 C192.64,324.74 192.21,325.88 192.09,327.21 C191.71,329.32 192.34,332.17 194.00,334.27 C194.16,334.47 194.31,334.67 194.46,334.87 L 194.46 334.87 C196.30,337.38 195.47,337.73 192.78,335.30 C190.34,333.10 188.05,332.80 186.38,334.48 C185.64,335.22 184.24,335.70 183.26,335.55 C182.29,335.40 180.95,336.23 180.29,337.39 C179.46,338.82 179.06,339.02 179.04,338.00 C179.01,336.85 179.44,334.15 180.08,330.96 C180.74,328.39 181.52,324.97 182.03,322.38 C182.06,322.22 182.09,322.06 182.12,321.91 C182.83,319.06 183.53,316.58 184.04,315.19 ZM 170.93 294.69 C169.03,294.26 162.79,292.55 155.25,290.41 C150.89,289.02 148.99,288.23 148.92,287.30 C148.85,286.43 150.40,285.44 153.05,283.74 L 153.31 283.58 C156.44,281.58 159.00,279.70 159.00,279.41 C159.00,279.12 158.51,279.19 157.90,279.56 C157.12,280.04 157.13,279.62 157.93,278.13 C158.82,276.46 158.71,275.49 157.40,273.49 C155.89,271.19 155.89,271.02 157.37,271.59 C158.26,271.93 158.74,272.61 158.44,273.10 C158.13,273.60 158.30,274.00 158.82,274.00 C159.34,274.00 160.31,275.34 160.99,276.97 C161.86,279.08 163.24,281.19 164.52,282.53 C165.38,283.58 166.05,284.00 166.68,284.00 C167.03,284.00 168.10,285.95 169.15,288.20 C169.53,289.17 169.97,290.26 170.40,291.25 C170.44,291.33 170.48,291.41 170.51,291.50 C171.19,293.06 171.61,294.04 171.29,294.47 C171.22,294.57 171.10,294.65 170.93,294.69 ZM 202.86 404.33 L 202.85 404.33 C202.71,404.35 202.58,404.38 202.45,404.40 C198.50,405.09 194.20,405.45 189.07,405.61 C188.93,405.62 188.80,405.62 188.67,405.63 C188.53,405.39 188.83,405.02 189.43,404.43 C190.29,403.56 191.00,402.27 191.00,401.56 C191.00,400.72 193.12,399.90 196.04,399.42 L 196.06 399.42 L 196.10 399.42 C197.27,399.32 198.42,399.19 199.55,399.06 C200.07,399.03 200.60,399.01 201.14,399.01 C202.41,399.01 207.24,397.88 212.12,396.57 C215.84,395.65 219.33,394.59 222.18,393.49 C223.52,392.97 223.74,393.28 223.28,395.04 C222.73,397.15 216.98,400.09 210.16,402.39 C208.41,402.94 206.52,403.48 204.50,404.00 C204.45,404.01 204.40,404.03 204.35,404.04 C203.85,404.14 203.36,404.24 202.86,404.33 ZM 148.50 239.49 C150.15,237.83 152.94,235.45 154.70,234.20 C156.67,232.81 157.69,231.37 157.36,230.48 C156.11,227.23 143.79,238.50 139.62,246.70 C137.06,251.76 137.74,251.86 141.77,247.00 C143.82,244.53 146.85,241.15 148.50,239.49 ZM 199.23 364.63 L 199.23 364.63 C201.38,364.88 203.43,365.00 205.35,365.00 C209.74,365.00 213.15,365.16 212.92,365.37 C212.69,365.57 208.90,365.97 204.50,366.25 C198.56,366.64 195.08,366.33 191.00,365.06 C187.98,364.12 184.15,362.57 182.50,361.61 C180.85,360.66 180.40,360.18 181.50,360.56 C181.86,360.68 182.22,360.81 182.59,360.93 C188.72,362.99 193.88,364.16 199.23,364.63 ZM 162.15 331.74 C161.29,331.61 161.00,330.74 160.58,328.40 C160.91,330.18 161.42,331.31 162.15,331.74 ZM 160.53 328.16 C160.19,326.37 159.53,324.36 158.63,322.30 L 158.61 322.26 C159.53,324.34 160.20,326.36 160.53,328.16 Z" fill="rgb(229,219,87)"/>
</svg>
